<svg xmlns="http://www.w3.org/2000/svg" width="1024" height="1024" viewBox="0 0 1024 1024">
<g>
<path d="M 537.77 708.03 C527.89,709.43 506.83,709.93 496.50,709.01 C413.58,701.62 342.84,642.68 321.89,563.50 C317.54,547.09 315.96,536.25 315.31,518.50 C314.12,485.84 320.33,456.76 334.98,426.50 C342.78,410.37 349.06,400.58 360.59,386.50 C406.89,329.98 479.72,304.40 552.50,319.09 C572.32,323.09 598.12,333.28 615.50,343.97 C634.92,355.92 655.95,374.76 668.86,391.78 C718.91,457.77 723.00,546.33 679.24,616.72 C648.15,666.75 597.26,699.59 537.77,708.03 ZM 416.21 637.82 C417.33,639.65 418.59,640.78 419.01,640.32 C419.43,639.87 427.76,625.55 437.54,608.50 C447.32,591.45 456.39,575.79 457.70,573.70 L 460.08 569.91 L 454.45 563.70 C425.09,531.35 428.85,480.59 462.71,452.24 C469.87,446.25 483.10,439.50 492.50,437.04 C502.42,434.45 520.48,434.12 529.50,436.37 C532.80,437.20 535.80,437.56 536.18,437.18 C537.10,436.25 577.00,366.95 577.00,366.28 C577.00,365.98 573.29,366.06 568.75,366.46 C559.23,367.28 541.42,371.69 532.05,375.53 C488.85,393.26 449.54,431.15 426.18,477.59 C419.78,490.32 418.61,493.12 413.87,507.00 C405.44,531.70 402.47,550.06 402.64,576.50 C402.74,592.03 403.15,597.15 404.87,604.50 C406.03,609.45 407.26,614.83 407.59,616.46 C408.43,620.63 413.77,633.87 416.21,637.82 ZM 448.31 656.63 C447.72,658.18 448.49,658.27 457.08,657.68 C494.89,655.10 540.52,627.16 572.43,587.06 C596.14,557.26 611.83,523.12 619.19,485.31 C621.18,475.08 621.49,470.41 621.48,450.50 C621.48,425.82 620.74,420.08 615.41,403.50 C612.47,394.36 607.99,384.75 606.46,384.29 C605.88,384.11 603.45,387.47 601.06,391.74 C598.66,396.01 593.92,404.23 590.51,410.00 C587.11,415.77 579.97,428.03 574.66,437.23 L 565.00 453.95 L 571.65 462.18 C578.86,471.12 584.94,482.77 587.73,493.00 C590.45,502.98 590.13,523.12 587.09,533.00 C580.72,553.74 565.97,572.42 549.30,580.86 C532.75,589.25 514.08,591.99 497.50,588.48 C493.65,587.67 490.00,587.00 489.38,587.00 C488.76,587.00 482.50,597.01 475.47,609.25 C468.44,621.49 459.60,636.77 455.82,643.22 C452.05,649.66 448.67,655.70 448.31,656.63 ZM 518.00 675.34 C518.00,675.80 519.69,675.92 521.75,675.62 C523.81,675.31 528.20,674.78 531.50,674.43 C546.00,672.91 566.90,667.10 581.43,660.54 C598.23,652.96 615.22,640.72 629.58,625.85 C652.58,602.02 665.97,576.48 673.14,542.77 C674.93,534.35 675.33,529.09 675.37,513.50 C675.43,492.90 673.74,480.88 668.36,463.64 C665.38,454.09 657.11,434.00 656.16,434.00 C655.80,434.01 655.45,441.99 655.39,451.75 C655.25,472.80 653.36,487.35 647.99,508.57 C636.91,552.31 615.88,590.87 585.57,623.04 C566.88,642.87 543.51,661.17 523.58,671.59 C520.52,673.19 518.00,674.88 518.00,675.34 ZM 363.27 579.25 C365.48,584.06 367.61,588.00 368.01,588.00 C368.40,588.00 368.97,579.11 369.27,568.25 C370.29,530.87 378.54,498.32 395.65,464.00 C409.77,435.70 421.80,419.04 444.42,396.42 C464.01,376.83 482.67,362.52 501.50,352.65 L 507.50 349.50 L 503.07 349.18 C493.62,348.51 467.88,354.12 452.50,360.20 C398.42,381.59 360.70,428.23 350.94,485.78 C349.10,496.64 348.86,501.13 349.27,516.50 C349.94,541.47 353.75,558.54 363.27,579.25 ZM 499.43 554.13 C502.25,555.09 507.68,555.89 511.66,555.93 C535.20,556.16 554.31,538.68 555.75,515.60 C556.40,505.06 554.90,498.39 549.93,489.88 C544.69,480.91 536.53,473.96 527.90,471.13 C501.78,462.55 475.23,477.01 469.37,502.99 C464.51,524.49 477.54,546.66 499.43,554.13 Z" fill="rgb(1,1,1)"/>
<path d="M 0.00 0.00 L 1024.00 0.00 L 1024.00 1024.00 L 0.00 1024.00 ZM 492.66 713.33 C493.42,714.10 504.40,712.91 505.58,711.93 C507.04,710.72 506.62,709.87 504.37,709.41 C512.12,709.60 521.75,709.38 529.47,708.85 C526.64,709.14 523.84,709.36 521.07,709.53 C511.92,710.08 510.64,710.53 513.13,712.35 C514.11,713.07 517.09,713.40 520.63,713.17 C540.96,711.90 549.76,711.82 551.89,712.88 C554.78,714.32 560.95,711.53 561.38,708.60 C561.66,706.70 563.95,704.85 565.13,705.58 C565.53,705.83 566.11,705.63 566.42,705.13 C566.73,704.63 570.25,704.43 574.24,704.69 C582.03,705.19 584.68,704.20 585.43,700.50 C585.65,699.40 586.15,697.69 586.54,696.71 C587.20,695.04 586.88,695.05 581.87,696.96 C575.64,699.34 568.71,701.47 561.43,703.28 C577.59,699.05 592.94,692.93 607.22,685.09 C602.96,687.50 598.89,689.61 595.34,691.20 C588.62,694.22 586.41,696.30 589.01,697.17 C591.25,697.92 607.54,697.44 608.15,696.61 C608.50,696.12 608.67,694.62 608.52,693.27 C608.30,691.22 608.99,690.50 612.73,688.90 C615.89,687.55 617.04,686.54 616.64,685.49 C615.67,682.98 620.21,680.87 625.98,681.13 C631.83,681.40 633.88,679.56 633.12,674.75 C633.05,674.34 633.56,673.94 634.25,673.87 L 637.86 673.50 C640.70,673.21 641.96,671.45 641.98,667.75 C642.00,665.37 642.40,665.00 644.96,665.00 C648.31,665.00 650.35,662.38 648.96,659.89 C648.38,658.86 648.50,658.32 649.29,658.29 C653.74,658.15 657.00,655.34 657.00,651.66 C657.00,649.12 657.30,648.82 659.47,649.24 C662.39,649.80 665.21,647.18 665.39,643.77 C665.48,641.98 666.22,641.39 668.91,641.00 C672.25,640.51 672.62,639.99 673.21,634.95 C673.34,633.89 674.20,633.52 675.97,633.78 C679.60,634.31 682.58,630.96 681.04,628.08 C680.18,626.48 680.22,626.00 681.21,625.98 C682.22,625.97 682.23,625.80 681.27,625.19 C679.99,624.37 680.33,620.27 681.80,618.80 C682.27,618.33 683.71,617.75 685.00,617.50 C687.80,616.96 689.15,615.13 688.44,612.83 C688.15,611.92 688.37,610.89 688.92,610.55 C689.46,610.21 689.64,609.22 689.31,608.35 C688.83,607.12 689.15,606.91 690.76,607.43 C691.90,607.79 693.13,607.61 693.48,607.02 C693.84,606.44 694.56,606.23 695.07,606.54 C695.58,606.86 696.00,606.19 696.00,605.06 C696.00,603.93 696.38,603.00 696.84,603.00 C697.53,603.00 697.52,596.41 696.82,591.36 C696.59,589.69 699.12,583.96 699.88,584.42 C700.23,584.64 701.27,584.28 702.18,583.61 C703.37,582.74 703.99,580.28 704.37,574.95 C705.36,561.00 705.95,559.00 709.02,559.00 C710.07,559.00 711.39,558.14 711.95,557.09 C713.19,554.78 713.07,542.97 711.79,541.33 C711.24,540.62 711.27,538.64 711.87,536.33 C712.76,532.89 713.58,521.26 713.02,520.00 C712.89,519.72 712.66,508.83 712.50,495.78 C712.26,476.42 711.94,471.79 710.72,470.58 C709.91,469.76 708.85,469.41 708.38,469.80 C707.91,470.18 708.30,469.57 709.25,468.44 C710.58,466.84 710.70,466.10 709.79,465.19 C709.13,464.53 708.09,464.00 707.47,464.00 C706.84,464.00 706.29,463.44 706.24,462.75 C706.08,460.62 705.01,456.17 704.05,453.63 C703.54,452.30 703.38,450.95 703.69,450.64 C704.00,450.33 704.59,448.26 704.99,446.04 C705.56,442.95 705.35,441.59 704.12,440.25 C702.58,438.59 697.82,437.85 696.59,439.08 C696.31,439.36 697.34,443.36 698.95,448.31 C693.07,431.01 684.72,414.33 673.93,398.78 C680.82,408.40 686.61,418.37 690.99,428.33 C692.86,432.57 694.86,435.88 695.44,435.69 C696.99,435.19 697.34,430.12 695.95,428.44 C695.02,427.32 695.03,426.67 695.98,425.52 C696.97,424.33 697.01,418.94 696.06,414.19 C696.03,414.01 694.54,414.01 692.75,414.19 C689.93,414.46 689.51,414.20 689.58,412.25 C689.62,411.01 689.32,410.00 688.90,410.00 C688.48,410.00 687.86,409.15 687.53,408.10 C687.17,406.95 686.26,406.37 685.22,406.62 C682.14,407.35 681.08,405.57 680.83,399.29 C680.60,393.52 678.81,388.85 677.38,390.29 C676.30,391.37 673.04,389.06 673.59,387.61 C674.41,385.49 671.23,383.01 668.15,383.37 C665.96,383.63 665.37,383.26 665.25,381.60 C664.81,375.76 662.07,372.53 659.63,374.97 C659.06,375.54 657.90,375.99 657.05,375.98 C656.12,375.98 655.91,375.67 656.53,375.23 C659.47,373.13 655.71,365.41 652.37,366.69 C651.70,366.95 650.65,366.22 650.04,365.08 C649.43,363.93 649.24,363.00 649.62,363.00 C651.55,363.00 646.42,359.07 644.15,358.81 C641.98,358.56 641.53,358.03 641.69,355.89 C641.87,353.36 638.86,350.59 636.44,351.05 C634.07,351.51 632.83,350.89 633.36,349.50 C633.68,348.67 633.50,348.00 632.97,348.00 C632.44,348.00 632.00,347.30 632.00,346.45 C632.00,344.34 626.16,341.99 623.46,343.02 C622.29,343.46 620.72,343.44 619.96,342.98 C619.21,342.51 618.17,342.39 617.65,342.71 C617.11,343.05 616.92,342.19 617.20,340.71 C617.84,337.38 616.70,335.60 613.81,335.45 C609.85,335.25 607.08,333.97 607.60,332.59 C608.36,330.61 601.64,327.86 594.63,327.28 C587.58,326.69 584.28,325.01 583.82,321.77 C583.54,319.77 582.91,319.49 578.50,319.42 C575.75,319.38 573.05,319.22 572.50,319.07 C571.95,318.92 570.07,318.87 568.32,318.97 C564.69,319.17 560.65,317.37 561.53,315.95 C561.85,315.43 561.61,315.00 561.00,315.00 C560.39,315.00 560.13,314.60 560.43,314.11 C561.04,313.12 556.38,311.65 555.12,312.43 C554.69,312.69 550.99,312.47 546.92,311.93 C535.66,310.45 528.00,310.08 528.00,311.03 C528.00,311.50 526.99,311.67 525.75,311.41 C522.83,310.80 508.18,310.82 500.50,311.45 C495.09,311.90 492.56,312.15 482.50,313.23 C480.85,313.41 479.25,313.21 478.94,312.78 C478.01,311.49 465.75,310.96 464.31,312.16 C463.59,312.75 463.00,314.29 463.00,315.56 C463.00,316.84 462.63,318.11 462.17,318.39 C461.71,318.68 456.86,319.13 451.38,319.41 C439.97,319.98 438.09,320.48 438.47,322.82 C438.99,326.04 437.31,327.64 433.82,327.26 C428.20,326.65 424.66,326.70 420.50,327.46 C415.68,328.34 415.95,328.11 415.68,331.63 C415.54,333.32 414.84,334.56 413.98,334.63 C413.16,334.71 411.83,334.83 411.00,334.90 C408.53,335.12 406.98,336.51 406.51,338.96 C405.89,342.16 405.86,342.18 398.94,342.65 C392.95,343.07 390.60,344.19 390.40,346.75 C390.18,349.51 389.91,349.89 387.75,350.63 C386.51,351.06 385.27,351.43 385.00,351.47 C383.52,351.66 382.05,353.27 382.58,354.13 C382.91,354.67 382.93,356.15 382.61,357.42 C382.17,359.15 381.47,359.63 379.77,359.34 C376.19,358.73 374.65,360.30 374.08,365.15 C374.03,365.51 372.70,366.26 371.11,366.81 C369.07,367.52 367.86,368.88 367.03,371.41 C366.38,373.38 365.20,375.00 364.42,375.00 C362.36,375.00 358.76,378.92 359.37,380.51 C359.70,381.39 358.86,382.09 356.93,382.51 C353.10,383.36 351.00,385.52 351.00,388.63 C351.00,390.00 350.60,390.87 350.12,390.57 C348.68,389.69 344.03,393.91 344.65,395.54 C344.96,396.34 344.79,397.00 344.27,397.00 C343.75,397.00 343.26,398.69 343.18,400.75 C343.05,404.30 340.67,407.53 338.97,406.48 C338.56,406.23 337.64,406.73 336.92,407.59 C335.76,408.99 335.39,410.26 334.82,414.75 C334.74,415.44 333.46,416.00 331.99,416.00 C330.11,416.00 328.98,416.74 328.18,418.50 C327.45,420.11 327.41,421.00 328.06,421.00 C328.72,421.00 328.70,421.70 327.99,423.02 C327.40,424.13 327.00,426.94 327.12,429.27 C327.38,434.73 326.37,437.75 324.01,438.50 C321.30,439.36 319.19,445.77 318.58,455.00 C318.38,458.02 317.98,461.40 317.69,462.50 C317.39,463.60 317.12,464.89 317.08,465.37 C317.03,465.85 316.24,465.63 315.31,464.87 C314.14,463.93 313.85,463.89 314.37,464.76 C314.82,465.51 314.51,466.25 313.59,466.60 C312.58,466.99 312.18,468.17 312.40,470.12 C312.59,471.72 312.35,473.28 311.87,473.58 C310.73,474.28 310.74,480.00 311.88,480.00 C312.37,480.00 312.32,482.05 311.77,484.62 C311.08,487.87 311.12,489.97 311.92,491.73 C312.60,493.22 312.70,494.68 312.17,495.36 C310.83,497.08 311.43,524.07 312.86,526.75 C313.65,528.22 313.75,529.60 313.14,530.75 C312.63,531.71 312.05,536.65 311.86,541.72 C311.56,549.32 311.80,551.28 313.21,552.93 C314.19,554.08 314.51,555.18 313.96,555.52 C313.43,555.85 313.00,557.02 313.00,558.12 C313.00,559.22 313.37,559.89 313.82,559.61 C315.27,558.71 318.21,563.17 318.62,566.89 C318.83,568.88 319.04,573.28 319.07,576.68 C319.10,580.20 319.64,583.26 320.31,583.78 C322.14,585.21 326.00,585.93 326.00,584.85 C326.00,584.32 326.49,584.19 327.10,584.56 C327.74,584.96 327.94,586.52 327.58,588.37 C327.36,589.51 327.20,590.24 327.12,590.98 C326.95,592.47 327.05,593.98 327.37,599.00 L 327.44 599.96 C327.88,606.81 329.72,609.56 333.25,608.64 C334.55,608.30 335.00,608.79 335.00,610.55 C335.00,614.27 337.00,617.81 338.86,617.37 C342.37,616.53 345.41,622.10 344.04,626.87 C343.16,629.93 344.62,633.36 346.92,633.62 C347.51,633.69 348.72,633.81 349.61,633.88 C350.56,633.95 350.99,634.58 350.67,635.42 C349.91,637.40 353.50,641.25 356.24,641.39 C358.05,641.48 358.51,642.10 358.56,644.55 C358.60,646.22 358.95,648.11 359.34,648.73 C360.03,649.85 363.02,649.73 365.00,648.50 C366.04,647.86 366.10,648.00 366.49,651.77 C366.76,654.34 369.86,658.21 371.05,657.47 C372.09,656.83 375.16,659.93 374.52,660.97 C373.75,662.22 376.19,663.79 379.50,664.16 C381.31,664.37 382.52,665.09 382.56,666.00 C382.65,668.35 384.13,672.21 384.71,671.62 C385.00,671.33 385.87,671.73 386.65,672.51 C387.42,673.28 388.66,673.68 389.41,673.40 C390.32,673.05 390.97,674.02 391.42,676.43 C392.16,680.38 394.51,681.54 401.22,681.24 C405.12,681.07 405.85,681.61 406.53,685.17 C407.01,687.63 408.92,689.19 410.67,688.55 C412.28,687.96 416.00,691.36 416.00,693.43 C416.00,694.36 416.42,694.86 416.93,694.54 C417.44,694.23 418.16,694.46 418.53,695.05 C418.90,695.65 419.82,695.90 420.57,695.61 C421.33,695.32 422.63,695.77 423.47,696.61 C424.31,697.45 425.00,697.77 425.00,697.32 C425.00,696.27 431.66,696.32 435.25,697.39 C437.71,698.13 438.09,698.58 437.96,700.54 C437.85,702.22 441.32,703.86 445.89,704.29 C448.76,704.56 451.38,705.04 451.69,705.36 C452.01,705.67 453.13,705.46 454.20,704.90 C455.44,704.23 456.55,704.20 457.31,704.82 C457.97,705.35 459.37,705.95 460.43,706.14 C461.49,706.34 462.26,706.85 462.14,707.29 C461.34,710.22 467.15,711.71 483.00,712.61 C488.22,712.91 492.57,713.24 492.66,713.33 ZM 367.92 543.25 C367.97,543.66 368.57,544.00 369.27,544.00 C369.99,544.00 371.08,540.58 372.48,533.92 C370.65,545.02 369.59,556.39 369.27,568.25 C369.19,571.06 369.10,573.74 368.99,576.16 C368.94,570.46 368.58,570.12 366.25,568.92 C361.07,566.24 360.53,565.13 360.35,556.77 C360.19,549.36 359.99,548.71 357.09,545.93 C355.39,544.31 354.00,542.51 354.00,541.93 C354.00,541.35 353.55,541.16 353.00,541.50 C352.45,541.84 352.00,541.57 352.00,540.89 C352.00,540.22 351.80,539.87 351.55,540.12 C350.84,540.83 354.63,556.78 357.46,565.00 C358.23,567.24 359.41,570.28 360.64,573.28 C355.68,561.43 352.61,550.46 350.91,538.00 C351.89,540.27 353.37,536.88 353.13,532.34 C352.87,527.34 351.58,524.00 349.89,524.00 C349.78,524.00 349.68,524.12 349.60,524.35 C349.51,522.82 349.44,521.26 349.38,519.67 C349.59,520.64 349.96,521.00 350.54,521.00 C351.43,521.00 352.00,520.03 352.00,518.50 C352.00,517.12 351.53,516.00 350.96,516.00 C350.31,516.00 350.25,515.36 350.81,514.25 C351.76,512.35 350.81,506.88 349.81,508.51 C349.54,508.94 349.30,510.96 349.19,513.35 C349.09,508.83 349.06,505.32 349.15,502.24 C349.36,503.34 349.85,503.61 350.61,503.32 C351.91,502.82 352.14,501.57 351.80,496.85 C351.56,493.62 351.79,491.00 352.30,491.00 C352.81,491.00 353.04,489.73 352.81,488.18 C352.58,486.62 352.97,484.82 353.66,484.17 C354.36,483.52 354.67,482.31 354.36,481.49 C354.04,480.67 354.32,480.00 354.96,480.00 C358.40,480.00 361.24,473.04 360.71,465.91 C360.33,460.67 361.44,456.13 363.16,455.88 C363.62,455.81 364.45,455.64 365.00,455.50 C365.55,455.36 366.48,455.19 367.08,455.12 C367.68,455.06 368.06,453.34 367.94,451.25 C367.58,445.04 368.87,442.08 372.62,440.52 C374.48,439.74 376.00,438.40 376.00,437.55 C376.00,436.70 376.37,436.00 376.82,436.00 C377.27,436.00 377.52,433.87 377.38,431.26 C377.20,427.73 377.60,426.09 378.96,424.82 C379.96,423.89 381.04,423.37 381.35,423.68 C382.13,424.46 384.73,421.70 384.35,420.49 C383.90,419.10 385.44,416.92 387.10,416.58 C390.45,415.91 391.92,414.64 392.52,411.92 C392.95,409.94 393.77,409.00 395.07,409.00 C396.91,409.00 402.00,402.33 402.00,399.91 C402.00,399.29 402.70,399.05 403.55,399.38 C404.41,399.71 404.85,399.56 404.54,399.06 C404.22,398.55 404.42,397.86 404.98,397.51 C405.54,397.16 406.00,396.40 406.00,395.82 C406.00,395.15 405.45,395.21 404.50,396.00 C403.67,396.68 403.00,396.90 403.00,396.48 C403.00,394.84 406.68,393.06 410.13,393.03 C413.96,393.00 415.81,391.56 416.48,388.10 C417.13,384.75 417.72,384.31 420.94,384.78 C424.14,385.25 425.17,384.06 425.39,379.66 C425.48,377.91 426.17,377.47 429.00,377.33 C433.60,377.10 438.30,376.08 439.30,375.09 C439.74,374.65 440.17,373.34 440.26,372.18 C440.45,369.63 441.72,369.07 448.96,368.35 C455.12,367.73 457.00,366.68 457.00,363.85 C457.00,361.62 457.85,361.24 464.21,360.65 C467.32,360.36 469.29,360.65 470.00,361.50 C471.74,363.60 470.71,365.47 467.51,366.00 C465.30,366.37 464.08,367.42 462.86,370.00 C461.95,371.92 461.41,373.84 461.66,374.25 C461.91,374.66 461.19,375.06 460.06,375.12 C456.06,375.37 453.64,376.61 454.49,377.99 C454.78,378.45 454.51,380.11 453.89,381.67 C453.27,383.22 452.56,383.96 452.31,383.30 C451.70,381.66 447.49,383.61 446.35,386.06 C445.88,387.07 443.92,388.95 442.00,390.24 C440.08,391.53 438.50,393.20 438.50,393.96 C438.50,394.71 437.94,395.52 437.25,395.75 C436.56,395.98 436.00,395.69 436.00,395.11 C436.00,393.34 433.33,394.97 432.21,397.44 C431.63,398.72 431.28,400.91 431.43,402.32 C431.65,404.36 431.08,405.14 428.61,406.18 C426.90,406.89 425.15,407.37 424.73,407.23 C423.60,406.87 421.87,411.96 422.65,413.33 C423.02,413.98 422.95,414.16 422.49,413.75 C422.03,413.33 420.61,413.68 419.33,414.52 C418.05,415.36 417.00,415.76 417.00,415.40 C417.00,415.05 416.40,415.25 415.67,415.86 C414.90,416.50 414.52,418.19 414.77,419.90 C415.17,422.58 414.97,422.82 412.54,422.55 C411.08,422.39 409.23,422.91 408.44,423.70 C406.97,425.18 406.82,425.93 406.79,432.00 C406.77,436.08 405.41,439.13 403.70,438.91 C400.81,438.55 400.00,439.17 399.98,441.75 C399.96,445.79 398.55,447.37 394.90,447.44 C392.22,447.49 391.51,447.98 390.91,450.25 C390.50,451.77 390.58,453.00 391.08,453.00 C391.58,453.00 391.74,454.69 391.45,456.75 C390.65,462.26 390.26,463.00 388.15,463.00 C384.83,463.00 383.75,465.64 383.54,474.26 C383.32,483.11 381.68,488.20 379.33,487.30 C377.29,486.51 374.90,490.04 375.42,493.05 C375.67,494.45 375.48,496.22 375.00,496.99 C374.53,497.77 374.52,499.10 374.99,499.98 C375.46,500.85 376.06,503.13 376.33,505.03 C376.60,506.94 376.86,508.61 376.91,508.75 C377.22,509.60 377.93,508.23 380.14,501.94 C378.51,507.07 377.08,512.21 375.83,517.40 C376.17,515.83 376.42,514.74 376.54,514.34 C377.38,511.54 374.53,510.77 370.87,512.82 C368.59,514.09 368.19,515.08 367.78,520.39 C367.41,525.22 367.50,539.02 367.92,543.25 ZM 521.66 550.87 C520.44,551.88 511.59,552.26 510.67,551.34 C510.48,551.15 507.80,550.94 504.70,550.87 C499.28,550.74 498.99,550.60 497.19,547.12 C495.73,544.29 494.63,543.43 492.16,543.19 C489.63,542.94 489.00,542.42 489.00,540.59 C489.00,538.29 486.00,534.74 484.38,535.12 C482.64,535.51 480.03,533.77 480.71,532.66 C482.77,529.33 480.70,526.60 476.07,526.52 C474.48,526.49 472.74,521.45 473.39,518.75 C473.62,517.79 473.36,517.00 472.80,517.00 C472.22,517.00 472.10,516.24 472.51,515.25 C472.91,514.29 473.17,513.05 473.08,512.50 C472.48,508.56 472.30,497.98 472.84,497.88 C473.20,497.82 474.62,497.70 476.00,497.63 C478.72,497.49 481.32,494.70 481.54,491.70 C481.70,489.56 483.66,488.04 486.27,488.02 C487.44,488.01 488.26,486.97 488.65,485.00 C489.09,482.81 489.82,481.99 491.38,481.97 C494.21,481.93 496.75,479.88 496.45,477.88 C495.82,473.61 497.21,473.30 518.28,472.96 C523.66,472.88 527.28,473.74 526.53,474.95 C525.74,476.22 530.71,481.00 532.83,481.00 C534.93,481.00 537.37,483.30 536.35,484.32 C535.26,485.40 538.19,488.07 539.89,487.55 C542.57,486.71 543.79,488.30 543.64,492.43 C543.51,496.08 543.70,496.37 546.35,496.53 C547.92,496.62 549.57,497.30 550.02,498.04 C550.92,499.49 552.55,510.88 552.09,512.50 C551.82,513.45 551.17,519.58 550.96,523.18 C550.84,525.25 548.67,527.17 546.89,526.79 C546.16,526.63 544.70,528.39 543.63,530.70 C542.07,534.11 541.14,534.95 538.68,535.20 C536.16,535.45 535.59,536.00 535.27,538.50 C534.80,542.09 534.10,542.90 531.00,543.50 C528.34,544.01 526.95,545.71 527.67,547.58 C528.19,548.94 524.67,551.34 523.66,550.32 C523.32,549.99 522.42,550.23 521.66,550.87 ZM 673.40 505.23 C674.00,505.63 674.84,505.96 675.30,505.98 C675.36,508.37 675.38,510.86 675.37,513.50 C675.37,514.84 675.36,516.10 675.35,517.29 C675.23,517.17 675.10,517.13 674.94,517.19 C672.58,517.97 671.41,520.83 672.64,522.80 C673.48,524.13 673.47,525.00 672.63,526.16 C672.01,527.02 671.50,530.37 671.50,533.61 C671.50,536.97 670.96,540.07 670.24,540.83 C669.55,541.56 669.24,542.57 669.55,543.08 C670.02,543.85 667.95,544.26 665.36,543.91 C663.83,543.71 663.37,546.64 663.52,555.56 C663.67,564.96 663.30,566.17 660.10,566.66 C657.23,567.09 655.84,569.90 655.18,576.60 C654.63,582.20 654.17,583.50 652.77,583.51 C650.54,583.53 648.07,586.02 647.54,588.81 C647.30,590.02 646.89,591.36 646.62,591.80 C646.35,592.24 646.52,593.22 647.00,593.99 C648.28,596.08 646.21,599.29 643.96,598.70 C641.25,597.99 638.62,600.33 638.43,603.63 C638.25,606.71 638.19,607.99 637.58,608.36 C637.15,608.62 636.43,608.41 635.19,608.05 L 635.01 608.00 C631.58,607.02 631.12,607.45 631.55,611.25 C631.87,614.01 629.03,616.75 627.09,615.56 C625.64,614.66 623.79,617.77 624.48,619.95 C624.95,621.42 624.69,622.00 623.57,622.00 C622.71,622.00 622.00,622.70 622.00,623.56 C622.00,624.42 621.57,624.85 621.04,624.52 C619.92,623.83 615.87,627.54 616.76,628.43 C617.70,629.37 613.73,631.93 611.29,631.97 C610.03,631.99 608.55,632.98 607.87,634.25 C607.20,635.49 606.77,636.50 606.90,636.50 C607.02,636.50 606.86,637.21 606.53,638.07 C606.11,639.15 605.02,639.51 603.06,639.22 C600.75,638.88 600.04,639.26 599.41,641.15 C598.97,642.44 598.59,644.17 598.56,645.00 C598.52,646.12 597.13,646.54 593.08,646.66 C588.53,646.80 587.24,647.28 585.01,649.68 C583.54,651.24 582.51,653.04 582.72,653.66 C582.93,654.29 582.07,654.80 580.80,654.80 C579.53,654.80 576.25,655.19 573.50,655.66 C569.38,656.37 568.44,656.92 568.18,658.78 C567.68,662.30 564.25,663.94 558.71,663.29 C555.33,662.90 553.61,662.15 552.86,660.74 C551.55,658.29 553.12,657.03 556.92,657.47 C560.56,657.88 562.10,656.39 561.00,653.50 C560.36,651.81 560.51,650.82 561.55,649.96 C562.35,649.30 563.00,649.00 563.00,649.29 C563.00,650.53 568.34,648.28 568.56,646.95 C569.15,643.24 569.69,642.39 572.45,640.87 C574.33,639.83 576.73,639.42 579.07,639.74 C582.60,640.21 584.21,639.26 584.58,636.50 C585.00,633.34 586.46,631.28 589.12,630.11 C590.96,629.29 591.93,628.25 591.61,627.42 C591.32,626.67 591.46,625.83 591.91,625.55 C592.37,625.27 593.02,623.30 593.36,621.16 C593.90,617.76 594.29,617.31 596.44,617.54 C599.42,617.87 601.39,615.75 601.45,612.15 C601.49,609.96 601.90,609.56 603.84,609.83 C606.32,610.18 610.32,607.33 609.41,605.86 C608.74,604.76 609.88,600.98 610.81,601.22 C611.19,601.32 612.46,601.07 613.63,600.67 C615.15,600.15 615.94,598.79 616.40,595.91 C616.75,593.69 616.78,591.46 616.46,590.94 C615.85,589.95 618.52,585.53 619.77,585.46 C623.37,585.27 625.66,583.83 625.58,581.77 C625.54,580.52 625.07,579.19 624.55,578.82 C623.66,578.18 626.16,577.25 630.56,576.59 C632.25,576.33 632.50,575.46 632.50,569.90 C632.50,562.85 633.55,559.61 635.59,560.40 C636.33,560.68 637.84,559.75 638.95,558.33 C640.58,556.26 640.96,554.37 640.88,548.63 C640.78,541.48 642.25,535.42 643.85,536.41 C644.32,536.70 645.46,536.38 646.39,535.71 C647.67,534.77 648.18,532.43 648.51,525.99 C649.13,514.03 649.92,511.37 652.53,512.37 C654.71,513.21 657.29,508.23 656.52,504.64 C655.58,500.19 655.55,497.03 656.42,493.00 C657.66,487.24 657.77,483.61 656.76,481.62 C656.11,480.37 656.18,478.90 656.95,477.21 C657.88,475.17 657.81,474.39 656.61,473.18 C655.17,471.75 654.87,471.62 653.80,478.94 C654.35,474.44 654.75,469.93 655.00,465.20 C655.04,466.87 655.29,466.86 656.50,465.64 C658.15,463.99 658.51,460.43 657.10,459.56 C656.24,459.03 655.43,460.42 655.13,462.66 C655.28,459.19 655.36,455.58 655.39,451.75 C655.42,445.89 655.56,440.67 655.75,437.43 C655.71,438.91 655.72,440.75 655.79,442.75 C656.11,452.83 656.14,455.50 657.33,456.21 C657.76,456.46 658.34,456.46 659.13,456.47 C659.24,456.47 659.36,456.47 659.48,456.47 C662.16,456.50 662.53,456.90 663.16,460.50 C663.54,462.70 663.68,467.11 663.47,470.30 C662.99,477.60 664.08,480.53 667.68,481.54 C669.23,481.97 670.80,482.27 671.16,482.19 C671.97,482.03 671.51,486.82 670.63,487.70 C670.28,488.05 670.71,489.44 671.59,490.78 C672.71,492.48 672.87,493.53 672.13,494.27 C670.85,495.55 671.85,504.19 673.40,505.23 ZM 595.51 537.02 C595.80,537.48 595.67,538.09 595.23,538.36 C593.93,539.16 591.67,532.99 591.83,529.08 C591.91,527.11 592.20,522.83 592.48,519.56 C592.83,515.57 592.60,513.37 591.81,512.88 C590.92,512.33 590.96,511.76 591.97,510.53 C592.96,509.35 593.02,508.62 592.20,507.80 C591.56,507.16 591.43,506.02 591.89,505.10 C592.33,504.22 592.59,499.00 592.47,493.50 C592.19,480.43 592.11,479.55 591.37,480.29 C591.03,480.64 589.45,480.25 587.86,479.43 C585.06,477.98 584.99,477.76 585.40,471.54 C585.87,464.41 584.29,461.67 580.16,462.47 C578.36,462.82 577.82,462.34 577.35,460.01 C576.79,457.21 575.08,455.79 572.00,455.60 C570.09,455.47 569.32,450.05 571.18,449.88 C571.91,449.82 572.88,449.83 573.35,449.92 C575.14,450.24 577.72,445.98 577.25,443.51 C576.98,442.13 577.16,440.96 577.63,440.92 C584.17,440.29 584.01,440.43 584.64,434.88 C584.92,432.52 585.34,430.26 585.59,429.86 C585.83,429.46 585.57,428.85 585.01,428.51 C583.43,427.53 586.27,425.21 589.51,424.83 C592.60,424.47 593.02,423.41 593.08,415.82 C593.11,411.48 595.13,407.79 596.64,409.31 C597.65,410.32 600.00,407.27 600.63,404.12 C601.32,400.63 603.06,399.69 606.43,400.97 C608.22,401.65 608.70,402.42 608.30,403.95 C607.99,405.16 608.25,406.00 608.94,406.00 C609.59,406.00 609.91,406.34 609.66,406.75 C609.14,407.62 611.56,410.11 612.25,409.42 C612.51,409.16 613.27,409.62 613.95,410.45 C615.28,412.04 615.72,424.06 614.76,432.25 C614.43,435.00 614.60,437.00 615.16,437.00 C615.69,437.00 615.86,437.41 615.55,437.92 C615.24,438.43 615.70,439.56 616.59,440.45 C618.19,442.05 617.89,445.00 616.13,445.00 C615.60,445.00 615.69,446.06 616.33,447.41 C616.95,448.74 617.81,449.62 618.23,449.36 C618.66,449.10 619.00,449.56 619.00,450.38 C619.00,451.21 618.55,452.16 618.00,452.50 C616.68,453.31 616.72,457.61 618.07,460.13 C618.85,461.58 618.82,462.52 617.96,463.55 C617.31,464.33 617.05,466.08 617.39,467.43 C617.73,468.77 617.55,470.16 616.99,470.51 C616.43,470.85 616.21,471.53 616.50,472.00 C616.79,472.47 616.58,473.14 616.02,473.49 C614.73,474.29 614.69,478.69 615.96,479.48 C616.58,479.86 616.58,480.99 615.96,482.61 C615.42,484.01 615.07,487.16 615.16,489.60 C615.29,493.13 614.80,494.62 612.79,496.78 C608.47,501.40 606.80,506.33 606.85,514.36 C606.87,517.32 606.43,518.34 604.97,518.72 C601.73,519.56 599.00,525.50 599.00,531.67 C599.00,536.74 598.82,537.19 597.00,536.71 C595.90,536.42 595.23,536.56 595.51,537.02 ZM 441.30 543.59 C438.40,537.32 436.35,530.83 435.47,524.75 C435.02,521.70 434.28,520.00 433.39,520.00 C432.62,520.00 431.93,520.56 431.84,521.25 C431.32,525.40 431.27,531.28 431.70,536.61 C432.17,542.37 432.40,542.82 435.54,544.32 C438.79,545.87 438.88,546.07 438.75,551.71 C438.58,559.83 439.43,561.89 442.79,561.51 C446.58,561.08 448.11,562.57 446.98,565.57 C446.02,568.08 446.33,568.29 452.50,569.22 C453.77,569.42 454.54,570.34 454.61,571.76 C454.72,573.81 453.39,574.58 450.62,574.08 C449.12,573.80 446.54,578.37 446.85,580.74 C447.01,581.98 446.66,583.00 446.07,583.00 C441.75,583.00 440.00,584.70 440.00,588.89 C440.00,595.46 438.28,598.84 434.76,599.19 C431.39,599.53 431.01,600.38 430.90,608.00 C430.84,612.49 429.18,615.11 425.96,615.82 C423.51,616.36 422.50,617.95 422.50,621.29 C422.50,623.61 421.99,624.57 420.62,624.83 C418.17,625.31 417.05,623.38 417.38,619.26 C417.60,616.45 417.25,615.85 415.07,615.27 C413.66,614.89 411.97,614.69 411.33,614.82 C410.68,614.95 409.93,614.69 409.65,614.24 C409.04,613.26 407.62,601.90 407.93,600.50 C408.44,598.19 408.32,585.47 407.66,570.83 C407.25,561.86 407.33,554.91 407.84,554.60 C408.33,554.30 408.54,552.80 408.31,551.27 C408.08,549.75 407.94,548.05 407.99,547.50 C408.05,546.95 408.25,543.58 408.43,540.00 C408.78,533.37 410.28,528.00 411.79,528.00 C412.25,528.00 413.61,527.08 414.82,525.95 C416.40,524.48 416.84,523.23 416.40,521.47 C416.07,520.13 416.28,517.63 416.88,515.92 C417.52,514.09 417.61,512.12 417.11,511.15 C415.86,508.75 417.33,505.63 419.99,505.00 C422.41,504.43 424.95,498.26 424.98,492.87 C425.00,489.79 427.09,487.71 429.32,488.57 C431.28,489.32 431.84,491.69 430.88,495.25 C430.44,496.90 430.54,498.00 431.13,498.00 C431.70,498.00 431.89,499.47 431.58,501.45 C431.27,503.35 431.43,505.15 431.92,505.45 C432.44,505.77 432.36,507.23 431.74,508.88 C430.92,511.04 430.98,512.53 431.95,514.88 C432.66,516.59 433.53,518.00 433.87,518.00 C434.16,517.99 434.49,515.21 434.66,511.47 C434.55,522.42 436.74,533.39 441.30,543.59 ZM 463.14 446.13 C460.57,446.65 456.78,446.46 456.37,445.79 C456.10,445.34 456.21,443.97 456.63,442.74 C457.52,440.08 457.65,439.37 457.85,435.75 C457.97,433.56 458.49,433.00 460.38,433.00 C463.16,433.00 464.67,431.45 465.15,428.09 C465.35,426.72 466.26,425.57 467.27,425.43 C469.24,425.14 472.92,421.18 472.97,419.28 C473.00,417.96 478.42,414.76 479.24,415.57 C479.51,415.84 480.30,414.70 480.99,413.03 C481.68,411.36 482.75,409.93 483.37,409.85 C483.99,409.76 484.95,409.59 485.50,409.46 C486.05,409.34 488.20,409.18 490.27,409.12 C493.18,409.03 494.27,408.48 494.99,406.75 C496.50,403.13 498.61,400.96 501.06,400.49 C503.99,399.92 504.75,399.09 505.17,396.00 C505.48,393.65 505.88,393.49 511.75,393.36 C520.12,393.16 520.95,392.76 520.48,389.06 C520.24,387.15 520.55,385.97 521.30,385.92 C522.74,385.82 526.43,385.30 530.41,384.63 C533.51,384.11 537.50,380.42 537.50,378.08 C537.50,376.95 539.71,376.65 548.49,376.58 L 559.48 376.50 L 559.99 373.54 C560.40,371.18 561.15,370.45 563.67,369.93 C566.22,369.41 566.93,369.64 567.31,371.10 C567.88,373.27 565.72,376.56 564.30,375.68 C562.46,374.55 560.04,377.45 559.45,381.50 C558.81,385.89 558.33,389.09 558.13,390.25 C558.06,390.66 557.11,391.00 556.02,391.00 C553.10,391.00 550.73,395.34 550.84,400.50 C550.91,403.97 550.49,405.20 548.96,406.02 C547.88,406.60 547.00,406.75 547.00,406.36 C547.00,405.97 545.95,406.64 544.66,407.85 C543.07,409.34 542.38,411.03 542.51,413.11 C542.65,415.44 542.14,416.44 540.41,417.22 C539.16,417.79 537.70,419.44 537.18,420.88 C536.65,422.32 535.59,425.28 534.83,427.45 L 533.45 431.41 L 512.87 431.32 C501.55,431.27 491.33,430.92 490.15,430.55 C488.78,430.11 488.00,430.29 488.00,431.04 C488.00,431.80 486.61,432.08 484.02,431.83 C481.15,431.56 479.85,431.87 479.37,432.98 C478.25,435.53 478.13,437.00 479.06,437.00 C479.54,437.00 479.72,437.57 479.45,438.28 C479.10,439.18 476.76,439.50 471.48,439.38 C463.53,439.19 463.52,439.19 463.73,444.75 C463.76,445.44 463.49,446.06 463.14,446.13 ZM 546.36 582.28 C536.24,587.00 524.08,589.97 513.54,589.99 C506.13,590.00 505.69,590.12 507.22,591.65 C509.03,593.46 512.97,593.66 532.82,593.00 C545.15,592.58 546.56,591.86 545.59,586.52 C545.20,584.38 545.39,584.14 546.87,584.93 C547.93,585.50 549.17,585.50 550.05,584.94 C550.85,584.44 553.43,584.25 555.78,584.52 C560.31,585.04 561.16,584.31 561.39,579.66 C561.45,578.47 562.06,577.54 562.75,577.60 C566.53,577.90 566.90,578.10 566.36,579.50 C566.04,580.33 566.33,581.00 567.02,581.00 C567.95,581.00 567.97,581.33 567.09,582.39 C566.45,583.16 566.00,584.17 566.08,584.64 C566.17,585.12 566.18,586.96 566.12,588.75 C566.03,591.12 565.53,592.01 564.25,592.04 C561.01,592.10 558.44,594.39 558.52,597.15 C558.58,599.47 558.32,599.69 556.39,598.96 C553.77,597.96 550.79,600.67 550.61,604.22 C550.53,605.91 549.75,606.61 547.53,607.00 C544.89,607.45 543.11,609.42 541.71,613.42 C541.53,613.92 539.05,614.47 536.20,614.63 C529.87,614.99 527.49,616.16 527.28,619.00 C527.06,621.86 525.34,623.81 522.70,624.19 C521.52,624.36 520.01,625.59 519.35,626.92 C518.69,628.25 517.40,629.76 516.48,630.27 C513.85,631.74 509.24,632.19 508.53,631.05 C508.17,630.47 507.21,630.00 506.40,630.00 C503.81,630.00 502.42,632.20 502.83,635.66 C503.15,638.38 502.87,639.01 501.36,639.04 C493.17,639.24 489.68,639.96 487.95,641.82 C486.63,643.24 486.43,643.98 487.28,644.29 C489.45,645.07 487.04,646.39 482.72,646.79 C467.80,648.16 462.54,647.46 465.06,644.43 C465.93,643.39 465.94,643.00 465.10,643.00 C464.41,643.00 464.17,642.01 464.48,640.50 L 465.52 635.50 C465.85,633.92 466.72,633.00 467.90,633.00 C471.64,633.00 474.85,625.55 472.50,622.33 C470.74,619.93 472.23,617.27 475.20,617.53 C478.25,617.80 481.19,615.17 480.45,612.83 C480.12,611.81 480.35,611.00 480.98,611.00 C481.59,611.00 481.96,610.21 481.79,609.25 C481.60,608.10 482.10,607.55 483.24,607.64 C484.20,607.71 484.75,607.41 484.47,606.96 C484.19,606.51 484.42,605.86 484.98,605.51 C485.54,605.16 486.00,604.40 486.00,603.82 C486.00,603.15 485.45,603.21 484.50,604.00 C483.57,604.77 483.00,604.85 483.00,604.19 C483.00,603.61 483.90,602.85 485.00,602.50 C487.10,601.83 489.38,598.53 489.45,596.03 C489.52,593.87 494.00,591.99 497.92,592.47 C501.13,592.87 505.75,591.42 504.69,590.35 C504.44,590.11 501.47,589.35 498.19,588.62 C513.61,591.72 530.80,589.44 546.36,582.28 ZM 456.34 657.73 C458.31,657.33 458.65,656.52 457.00,655.50 C456.45,655.16 456.00,653.75 456.00,652.37 C456.00,649.60 458.51,646.40 459.47,647.95 C459.80,648.48 460.73,648.66 461.54,648.34 C462.63,647.93 462.84,648.25 462.34,649.55 C461.94,650.60 462.06,651.08 462.63,650.73 C463.16,650.40 464.14,651.00 464.81,652.06 C465.90,653.82 465.73,654.00 463.01,654.00 C461.35,654.00 460.00,654.19 460.00,654.42 C460.00,654.65 459.74,655.53 459.41,656.37 C459.20,656.93 459.36,657.29 460.03,657.43 C459.04,657.53 458.06,657.61 457.08,657.68 C456.83,657.70 456.58,657.72 456.34,657.73 ZM 447.24 462.11 C443.52,462.69 441.12,462.78 440.71,462.37 C439.87,461.54 441.17,458.01 442.37,457.87 C442.99,457.80 444.42,457.64 445.54,457.52 C447.04,457.35 447.64,457.92 447.78,459.65 C447.89,460.94 447.65,462.05 447.24,462.11 ZM 582.62 564.61 C581.92,566.82 578.84,567.44 577.13,565.73 C575.49,564.09 575.74,562.64 577.89,561.30 C580.47,559.69 583.51,561.82 582.62,564.61 ZM 438.65 475.53 C438.75,477.37 438.03,478.45 435.98,479.51 L 433.18 480.96 L 433.45 477.73 C433.69,474.81 433.77,473.69 434.36,473.26 C434.72,473.00 435.28,473.00 436.18,473.00 L 436.25 473.00 C437.95,473.00 438.54,473.62 438.65,475.53 ZM 575.00 572.57 C575.00,573.22 574.36,574.29 573.57,574.94 C572.41,575.90 571.79,575.62 570.37,573.45 C568.68,570.86 568.68,570.70 570.54,569.34 C572.24,568.11 572.63,568.14 573.74,569.66 C574.43,570.61 575.00,571.92 575.00,572.57 ZM 542.44 669.90 C543.36,671.39 540.58,671.84 539.24,670.42 C537.38,668.43 537.74,665.30 539.89,664.74 C541.20,664.40 542.12,664.98 542.87,666.62 C543.61,668.23 543.62,669.00 542.92,669.00 C542.35,669.00 542.13,669.40 542.44,669.90 ZM 589.83 547.87 C590.23,550.63 589.18,551.81 586.81,551.27 C584.28,550.68 584.91,545.50 587.52,545.50 C588.84,545.50 589.61,546.29 589.83,547.87 ZM 486.00 356.93 C486.00,358.07 485.44,358.96 484.75,358.92 C482.30,358.77 481.12,357.85 481.56,356.44 C482.46,353.50 482.76,352.40 483.20,352.34 C483.46,352.30 483.76,352.61 484.26,353.11 C484.33,353.19 484.41,353.27 484.50,353.35 C485.32,354.18 486.00,355.79 486.00,356.93 ZM 453.50 451.90 C453.50,453.46 452.86,454.40 451.69,454.58 C449.80,454.85 449.11,453.75 449.25,450.70 C449.39,447.77 453.50,448.94 453.50,451.90 ZM 366.67 562.33 C368.16,563.82 369.00,562.81 369.00,559.53 C369.00,556.86 368.66,556.19 367.50,556.64 C365.99,557.22 365.42,561.09 366.67,562.33 ZM 367.00 549.61 C367.00,551.07 367.58,552.00 368.50,552.00 C369.50,552.00 370.00,551.00 370.00,549.03 C370.00,546.80 369.63,546.21 368.50,546.64 C367.67,546.95 367.00,548.29 367.00,549.61 ZM 674.37 491.05 C672.92,481.96 670.57,470.76 668.36,463.64 C671.48,473.63 673.35,481.87 674.37,491.05 ZM 601.75 649.17 C595.07,653.64 588.23,657.47 581.43,660.54 C577.18,662.46 572.39,664.31 567.37,666.01 C577.43,662.44 587.21,657.96 595.93,652.81 C597.87,651.67 599.82,650.45 601.75,649.17 ZM 409.96 680.38 C367.14,654.30 334.93,612.78 321.89,563.52 C334.95,612.85 367.34,654.33 409.96,680.38 ZM 674.86 531.46 C674.52,535.48 673.99,538.77 673.14,542.77 C672.17,547.33 671.08,551.74 669.88,556.01 C671.98,548.20 673.79,538.96 674.86,531.46 ZM 667.03 565.22 C664.27,573.33 661.01,580.97 657.18,588.24 C660.68,581.25 664.45,572.47 667.03,565.22 ZM 644.61 658.39 C642.78,660.13 641.05,661.72 639.50,663.07 C636.18,665.95 631.92,669.19 627.23,672.47 C633.28,668.12 639.08,663.42 644.61,658.39 ZM 540.96 619.21 C553.72,608.54 565.64,596.07 576.10,582.32 C574.90,583.91 573.68,585.49 572.43,587.06 C562.96,598.96 552.28,609.79 540.96,619.21 ZM 469.21 656.05 C471.13,655.60 473.36,655.04 475.94,654.38 C482.91,652.58 489.90,650.13 496.85,647.07 C487.52,651.22 478.22,654.27 469.21,656.05 ZM 471.96 445.93 C477.98,442.21 484.47,439.30 491.23,437.39 C485.32,439.11 478.15,442.34 471.96,445.93 ZM 570.45 563.52 C577.76,554.80 583.65,544.20 587.09,533.00 C583.55,544.52 577.95,554.77 570.45,563.52 ZM 376.58 420.99 C394.70,393.98 420.78,372.75 452.49,360.20 C420.87,372.72 394.72,394.01 376.58,420.99 ZM 637.29 541.73 C640.07,534.72 642.56,527.55 644.76,520.23 C643.28,525.36 641.79,530.03 640.47,533.57 C639.44,536.33 638.38,539.05 637.29,541.73 ZM 705.24 471.27 C705.33,471.69 705.42,472.10 705.50,472.50 C711.51,502.13 710.61,532.14 703.22,560.75 C710.79,531.32 711.43,500.73 705.24,471.27 ZM 434.84 506.92 C435.23,499.79 436.52,493.47 439.00,486.53 C436.70,493.14 435.31,500.01 434.84,506.92 ZM 644.90 366.23 C635.52,357.80 625.31,350.01 615.50,343.97 C625.79,350.30 635.70,357.85 644.90,366.23 ZM 604.28 533.92 C610.89,518.42 615.93,502.02 619.18,485.33 C615.88,502.28 610.90,518.50 604.28,533.92 ZM 615.56 584.47 C606.89,598.22 596.97,610.94 585.57,623.04 C596.87,611.05 606.87,598.18 615.56,584.47 ZM 448.31 656.63 C448.32,656.61 448.33,656.58 448.34,656.56 C447.98,657.61 448.65,657.94 451.75,657.99 C448.17,658.11 447.88,657.76 448.31,656.63 ZM 671.09 628.83 C670.03,630.31 668.94,631.77 667.84,633.22 C667.03,634.29 666.07,635.48 665.01,636.75 C667.10,634.17 669.12,631.53 671.09,628.83 ZM 366.16 585.13 C367.03,586.69 367.73,587.75 368.05,587.96 C368.04,587.99 368.02,588.00 368.01,588.00 C367.80,588.00 367.10,586.89 366.16,585.13 ZM 652.92 485.15 C652.58,487.58 652.04,490.56 651.35,493.87 C651.95,490.89 652.47,488.00 652.92,485.15 ZM 350.42 488.99 C350.58,487.98 350.75,486.91 350.94,485.78 C351.04,485.20 351.14,484.62 351.25,484.04 C351.18,484.40 351.12,484.76 351.06,485.13 C350.82,486.51 350.61,487.79 350.42,488.99 Z" fill="rgb(255,255,255)"/>
<path d="M 492.66 713.33 C492.57,713.24 488.22,712.91 483.00,712.61 C467.15,711.71 461.34,710.22 462.14,707.29 C462.26,706.85 461.49,706.34 460.43,706.14 C459.37,705.95 457.97,705.35 457.31,704.82 C456.55,704.20 455.44,704.23 454.20,704.90 C453.13,705.46 452.01,705.67 451.69,705.36 C451.38,705.04 448.76,704.56 445.89,704.29 C441.32,703.86 437.85,702.22 437.96,700.54 C438.09,698.58 437.71,698.13 435.25,697.39 C431.66,696.32 425.00,696.27 425.00,697.32 C425.00,697.77 424.31,697.45 423.47,696.61 C422.63,695.77 421.33,695.32 420.57,695.61 C419.82,695.90 418.90,695.65 418.53,695.05 C418.16,694.46 417.44,694.23 416.93,694.54 C416.42,694.86 416.00,694.36 416.00,693.43 C416.00,691.36 412.28,687.96 410.67,688.55 C408.92,689.19 407.01,687.63 406.53,685.17 C405.85,681.61 405.12,681.07 401.22,681.24 C394.51,681.54 392.16,680.38 391.42,676.43 C390.97,674.02 390.32,673.05 389.41,673.40 C388.66,673.68 387.42,673.28 386.65,672.51 C385.87,671.73 385.00,671.33 384.71,671.62 C384.13,672.21 382.65,668.35 382.56,666.00 C382.52,665.09 381.31,664.37 379.50,664.16 C376.19,663.79 373.75,662.22 374.52,660.97 C375.16,659.93 372.09,656.83 371.05,657.47 C369.86,658.21 366.76,654.34 366.49,651.77 C366.10,648.00 366.04,647.86 365.00,648.50 C363.02,649.73 360.03,649.85 359.34,648.73 C358.95,648.11 358.60,646.22 358.56,644.55 C358.51,642.10 358.05,641.48 356.24,641.39 C353.50,641.25 349.91,637.40 350.67,635.42 C350.99,634.58 350.56,633.95 349.61,633.88 C348.72,633.81 347.51,633.69 346.92,633.62 C344.62,633.36 343.16,629.93 344.04,626.87 C345.41,622.10 342.37,616.53 338.86,617.37 C337.00,617.81 335.00,614.27 335.00,610.55 C335.00,608.79 334.55,608.30 333.25,608.64 C329.72,609.56 327.88,606.81 327.44,599.96 C326.88,591.47 326.88,591.96 327.58,588.37 C327.94,586.52 327.74,584.96 327.10,584.56 C326.49,584.19 326.00,584.32 326.00,584.85 C326.00,585.93 322.14,585.21 320.31,583.78 C319.64,583.26 319.10,580.20 319.07,576.68 C319.04,573.28 318.83,568.88 318.62,566.89 C318.21,563.17 315.27,558.71 313.82,559.61 C313.37,559.89 313.00,559.22 313.00,558.12 C313.00,557.02 313.43,555.85 313.96,555.52 C314.51,555.18 314.19,554.08 313.21,552.93 C311.80,551.28 311.56,549.32 311.86,541.72 C312.05,536.65 312.63,531.71 313.14,530.75 C313.75,529.60 313.65,528.22 312.86,526.75 C311.43,524.07 310.83,497.08 312.17,495.36 C312.70,494.68 312.60,493.22 311.92,491.73 C311.12,489.97 311.08,487.87 311.77,484.62 C312.32,482.05 312.37,480.00 311.88,480.00 C310.74,480.00 310.73,474.28 311.87,473.58 C312.35,473.28 312.59,471.72 312.40,470.12 C312.18,468.17 312.58,466.99 313.59,466.60 C314.51,466.25 314.82,465.51 314.37,464.76 C313.85,463.89 314.14,463.93 315.31,464.87 C316.24,465.63 317.03,465.85 317.08,465.37 C317.12,464.89 317.39,463.60 317.69,462.50 C317.98,461.40 318.38,458.02 318.58,455.00 C319.19,445.77 321.30,439.36 324.01,438.50 C326.37,437.75 327.38,434.73 327.12,429.27 C327.00,426.94 327.40,424.13 327.99,423.02 C328.70,421.70 328.72,421.00 328.06,421.00 C327.41,421.00 327.45,420.11 328.18,418.50 C328.98,416.74 330.11,416.00 331.99,416.00 C333.46,416.00 334.74,415.44 334.82,414.75 C335.39,410.26 335.76,408.99 336.92,407.59 C337.64,406.73 338.56,406.23 338.97,406.48 C340.67,407.53 343.05,404.30 343.18,400.75 C343.26,398.69 343.75,397.00 344.27,397.00 C344.79,397.00 344.96,396.34 344.65,395.54 C344.03,393.91 348.68,389.69 350.12,390.57 C350.60,390.87 351.00,390.00 351.00,388.63 C351.00,385.52 353.10,383.36 356.93,382.51 C358.86,382.09 359.70,381.39 359.37,380.51 C358.76,378.92 362.36,375.00 364.42,375.00 C365.20,375.00 366.38,373.38 367.03,371.41 C367.86,368.88 369.07,367.52 371.11,366.81 C372.70,366.26 374.03,365.51 374.08,365.15 C374.65,360.30 376.19,358.73 379.77,359.34 C381.47,359.63 382.17,359.15 382.61,357.42 C382.93,356.15 382.91,354.67 382.58,354.13 C382.05,353.27 383.52,351.66 385.00,351.47 C385.27,351.43 386.51,351.06 387.75,350.63 C389.91,349.89 390.18,349.51 390.40,346.75 C390.60,344.19 392.95,343.07 398.94,342.65 C405.86,342.18 405.89,342.16 406.51,338.96 C406.98,336.51 408.53,335.12 411.00,334.90 C411.83,334.83 413.16,334.71 413.98,334.63 C414.84,334.56 415.54,333.32 415.68,331.63 C415.95,328.11 415.68,328.34 420.50,327.46 C424.66,326.70 428.20,326.65 433.82,327.26 C437.31,327.64 438.99,326.04 438.47,322.82 C438.09,320.48 439.97,319.98 451.38,319.41 C456.86,319.13 461.71,318.68 462.17,318.39 C462.63,318.11 463.00,316.84 463.00,315.56 C463.00,314.29 463.59,312.75 464.31,312.16 C465.75,310.96 478.01,311.49 478.94,312.78 C479.25,313.21 480.85,313.41 482.50,313.23 C492.56,312.15 495.09,311.90 500.50,311.45 C508.18,310.82 522.83,310.80 525.75,311.41 C526.99,311.67 528.00,311.50 528.00,311.03 C528.00,310.08 535.66,310.45 546.92,311.93 C550.99,312.47 554.69,312.69 555.12,312.43 C556.38,311.65 561.04,313.12 560.43,314.11 C560.13,314.60 560.39,315.00 561.00,315.00 C561.61,315.00 561.85,315.43 561.53,315.95 C560.65,317.37 564.69,319.17 568.32,318.97 C570.07,318.87 571.95,318.92 572.50,319.07 C573.05,319.22 575.75,319.38 578.50,319.42 C582.91,319.49 583.54,319.77 583.82,321.77 C584.28,325.01 587.58,326.69 594.63,327.28 C601.64,327.86 608.36,330.61 607.60,332.59 C607.08,333.97 609.85,335.25 613.81,335.45 C616.70,335.60 617.84,337.38 617.20,340.71 C616.92,342.19 617.11,343.05 617.65,342.71 C618.17,342.39 619.21,342.51 619.96,342.98 C620.72,343.44 622.29,343.46 623.46,343.02 C626.16,341.99 632.00,344.34 632.00,346.45 C632.00,347.30 632.44,348.00 632.97,348.00 C633.50,348.00 633.68,348.67 633.36,349.50 C632.83,350.89 634.07,351.51 636.44,351.05 C638.86,350.59 641.87,353.36 641.69,355.89 C641.53,358.03 641.98,358.56 644.15,358.81 C646.42,359.07 651.55,363.00 649.62,363.00 C649.24,363.00 649.43,363.93 650.04,365.08 C650.65,366.22 651.70,366.95 652.37,366.69 C655.71,365.41 659.47,373.13 656.53,375.23 C655.91,375.67 656.12,375.98 657.05,375.98 C657.90,375.99 659.06,375.54 659.63,374.97 C662.07,372.53 664.81,375.76 665.25,381.60 C665.37,383.26 665.96,383.63 668.15,383.37 C671.23,383.01 674.41,385.49 673.59,387.61 C673.04,389.06 676.30,391.37 677.38,390.29 C678.81,388.85 680.60,393.52 680.83,399.29 C681.08,405.57 682.14,407.35 685.22,406.62 C686.26,406.37 687.17,406.95 687.53,408.10 C687.86,409.15 688.48,410.00 688.90,410.00 C689.32,410.00 689.62,411.01 689.58,412.25 C689.51,414.20 689.93,414.46 692.75,414.19 C694.54,414.01 696.03,414.01 696.06,414.19 C697.01,418.94 696.97,424.33 695.98,425.52 C695.03,426.67 695.02,427.32 695.95,428.44 C697.34,430.12 696.99,435.19 695.44,435.69 C694.86,435.88 692.86,432.57 690.99,428.33 C676.88,396.22 648.04,363.99 615.50,343.97 C598.12,333.28 572.32,323.09 552.50,319.09 C479.72,304.40 406.89,329.98 360.59,386.50 C349.06,400.58 342.78,410.37 334.98,426.50 C320.33,456.76 314.12,485.84 315.31,518.50 C315.96,536.25 317.54,547.09 321.89,563.50 C341.44,637.39 404.10,693.86 481.03,706.92 C487.75,708.07 495.78,709.01 498.88,709.02 C505.54,709.03 507.86,710.04 505.58,711.93 C504.40,712.91 493.42,714.10 492.66,713.33 ZM 513.13 712.35 C510.64,710.53 511.92,710.08 521.07,709.53 C541.73,708.29 564.51,703.58 581.87,696.96 C586.88,695.05 587.20,695.04 586.54,696.71 C586.15,697.69 585.65,699.40 585.43,700.50 C584.68,704.20 582.03,705.19 574.24,704.69 C570.25,704.43 566.73,704.63 566.42,705.13 C566.11,705.63 565.53,705.83 565.13,705.58 C563.95,704.85 561.66,706.70 561.38,708.60 C560.95,711.53 554.78,714.32 551.89,712.88 C549.76,711.82 540.96,711.90 520.63,713.17 C517.09,713.40 514.11,713.07 513.13,712.35 ZM 589.01 697.17 C586.41,696.30 588.62,694.22 595.34,691.20 C608.48,685.30 628.85,672.31 639.50,663.07 C648.03,655.66 661.83,641.13 667.84,633.22 C703.41,586.44 716.92,528.78 705.50,472.50 C704.16,465.90 701.48,455.81 699.54,450.08 C697.60,444.34 696.27,439.39 696.59,439.08 C697.82,437.85 702.58,438.59 704.12,440.25 C705.35,441.59 705.56,442.95 704.99,446.04 C704.59,448.26 704.00,450.33 703.69,450.64 C703.38,450.95 703.54,452.30 704.05,453.63 C705.01,456.17 706.08,460.62 706.24,462.75 C706.29,463.44 706.84,464.00 707.47,464.00 C708.09,464.00 709.13,464.53 709.79,465.19 C710.70,466.10 710.58,466.84 709.25,468.44 C708.30,469.57 707.91,470.18 708.38,469.80 C708.85,469.41 709.91,469.76 710.72,470.58 C711.94,471.79 712.26,476.42 712.50,495.78 C712.66,508.83 712.89,519.72 713.02,520.00 C713.58,521.26 712.76,532.89 711.87,536.33 C711.27,538.64 711.24,540.62 711.79,541.33 C713.07,542.97 713.19,554.78 711.95,557.09 C711.39,558.14 710.07,559.00 709.02,559.00 C705.95,559.00 705.36,561.00 704.37,574.95 C703.99,580.28 703.37,582.74 702.18,583.61 C701.27,584.28 700.23,584.64 699.88,584.42 C699.12,583.96 696.59,589.69 696.82,591.36 C697.52,596.41 697.53,603.00 696.84,603.00 C696.38,603.00 696.00,603.93 696.00,605.06 C696.00,606.19 695.58,606.86 695.07,606.54 C694.56,606.23 693.84,606.44 693.48,607.02 C693.13,607.61 691.90,607.79 690.76,607.43 C689.15,606.91 688.83,607.12 689.31,608.35 C689.64,609.22 689.46,610.21 688.92,610.55 C688.37,610.89 688.15,611.92 688.44,612.83 C689.15,615.13 687.80,616.96 685.00,617.50 C683.71,617.75 682.27,618.33 681.80,618.80 C680.33,620.27 679.99,624.37 681.27,625.19 C682.23,625.80 682.22,625.97 681.21,625.98 C680.22,626.00 680.18,626.48 681.04,628.08 C682.58,630.96 679.60,634.31 675.97,633.78 C674.20,633.52 673.34,633.89 673.21,634.95 C672.62,639.99 672.25,640.51 668.91,641.00 C666.22,641.39 665.48,641.98 665.39,643.77 C665.21,647.18 662.39,649.80 659.47,649.24 C657.30,648.82 657.00,649.12 657.00,651.66 C657.00,655.34 653.74,658.15 649.29,658.29 C648.50,658.32 648.38,658.86 648.96,659.89 C650.35,662.38 648.31,665.00 644.96,665.00 C642.40,665.00 642.00,665.37 641.98,667.75 C641.96,671.45 640.70,673.21 637.86,673.50 C636.56,673.64 634.94,673.80 634.25,673.87 C633.56,673.94 633.05,674.34 633.12,674.75 C633.88,679.56 631.83,681.40 625.98,681.13 C620.21,680.87 615.67,682.98 616.64,685.49 C617.04,686.54 615.89,687.55 612.73,688.90 C608.99,690.50 608.30,691.22 608.52,693.27 C608.67,694.62 608.50,696.12 608.15,696.61 C607.54,697.44 591.25,697.92 589.01,697.17 ZM 518.00 675.34 C518.00,674.88 520.52,673.19 523.58,671.59 C543.51,661.17 566.88,642.87 585.57,623.04 C609.83,597.30 627.35,568.74 640.47,533.57 C644.93,521.60 651.32,496.71 652.94,485.00 C654.79,471.62 654.86,471.43 656.61,473.18 C657.81,474.39 657.88,475.17 656.95,477.21 C656.18,478.90 656.11,480.37 656.76,481.62 C657.77,483.61 657.66,487.24 656.42,493.00 C655.55,497.03 655.58,500.19 656.52,504.64 C657.29,508.23 654.71,513.21 652.53,512.37 C649.92,511.37 649.13,514.03 648.51,525.99 C648.18,532.43 647.67,534.77 646.39,535.71 C645.46,536.38 644.32,536.70 643.85,536.41 C642.25,535.42 640.78,541.48 640.88,548.63 C640.96,554.37 640.58,556.26 638.95,558.33 C637.84,559.75 636.33,560.68 635.59,560.40 C633.55,559.61 632.50,562.85 632.50,569.90 C632.50,575.46 632.25,576.33 630.56,576.59 C626.16,577.25 623.66,578.18 624.55,578.82 C625.07,579.19 625.54,580.52 625.58,581.77 C625.66,583.83 623.37,585.27 619.77,585.46 C618.52,585.53 615.85,589.95 616.46,590.94 C616.78,591.46 616.75,593.69 616.40,595.91 C615.94,598.79 615.15,600.15 613.63,600.67 C612.46,601.07 611.19,601.32 610.81,601.22 C609.88,600.98 608.74,604.76 609.41,605.86 C610.32,607.33 606.32,610.18 603.84,609.83 C601.90,609.56 601.49,609.96 601.45,612.15 C601.39,615.75 599.42,617.87 596.44,617.54 C594.29,617.31 593.90,617.76 593.36,621.16 C593.02,623.30 592.37,625.27 591.91,625.55 C591.46,625.83 591.32,626.67 591.61,627.42 C591.93,628.25 590.96,629.29 589.12,630.11 C586.46,631.28 585.00,633.34 584.58,636.50 C584.21,639.26 582.60,640.21 579.07,639.74 C576.73,639.42 574.33,639.83 572.45,640.87 C569.69,642.39 569.15,643.24 568.56,646.95 C568.34,648.28 563.00,650.53 563.00,649.29 C563.00,649.00 562.35,649.30 561.55,649.96 C560.51,650.82 560.36,651.81 561.00,653.50 C562.10,656.39 560.56,657.88 556.92,657.47 C553.12,657.03 551.55,658.29 552.86,660.74 C553.61,662.15 555.33,662.90 558.71,663.29 C564.25,663.94 567.68,662.30 568.18,658.78 C568.44,656.92 569.38,656.37 573.50,655.66 C576.25,655.19 579.53,654.80 580.80,654.80 C582.07,654.80 582.93,654.29 582.72,653.66 C582.51,653.04 583.54,651.24 585.01,649.68 C587.24,647.28 588.53,646.80 593.08,646.66 C597.13,646.54 598.52,646.12 598.56,645.00 C598.59,644.17 598.97,642.44 599.41,641.15 C600.04,639.26 600.75,638.88 603.06,639.22 C605.02,639.51 606.11,639.15 606.53,638.07 C606.86,637.21 607.02,636.50 606.90,636.50 C606.77,636.50 607.20,635.49 607.87,634.25 C608.55,632.98 610.03,631.99 611.29,631.97 C613.73,631.93 617.70,629.37 616.76,628.43 C615.87,627.54 619.92,623.83 621.04,624.52 C621.57,624.85 622.00,624.42 622.00,623.56 C622.00,622.70 622.71,622.00 623.57,622.00 C624.69,622.00 624.95,621.42 624.48,619.95 C623.79,617.77 625.64,614.66 627.09,615.56 C629.03,616.75 631.87,614.01 631.55,611.25 C631.12,607.45 631.58,607.02 635.01,608.00 C638.18,608.91 638.11,609.00 638.43,603.63 C638.62,600.33 641.25,597.99 643.96,598.70 C646.21,599.29 648.28,596.08 647.00,593.99 C646.52,593.22 646.35,592.24 646.62,591.80 C646.89,591.36 647.30,590.02 647.54,588.81 C648.07,586.02 650.54,583.53 652.77,583.51 C654.17,583.50 654.63,582.20 655.18,576.60 C655.84,569.90 657.23,567.09 660.10,566.66 C663.30,566.17 663.67,564.96 663.52,555.56 C663.37,546.64 663.83,543.71 665.36,543.91 C667.95,544.26 670.02,543.85 669.55,543.08 C669.24,542.57 669.55,541.56 670.24,540.83 C670.96,540.07 671.50,536.97 671.50,533.61 C671.50,530.37 672.01,527.02 672.63,526.16 C673.47,525.00 673.48,524.13 672.64,522.80 C671.41,520.83 672.58,517.97 674.94,517.19 C677.82,516.23 673.56,544.80 668.36,561.27 C665.10,571.59 658.18,587.29 653.33,595.34 C639.64,618.10 617.93,639.84 595.93,652.81 C576.79,664.10 552.57,672.22 531.50,674.43 C528.20,674.78 523.81,675.31 521.75,675.62 C519.69,675.92 518.00,675.80 518.00,675.34 ZM 542.44 669.90 C542.13,669.40 542.35,669.00 542.92,669.00 C543.62,669.00 543.61,668.23 542.87,666.62 C542.12,664.98 541.20,664.40 539.89,664.74 C537.74,665.30 537.38,668.43 539.24,670.42 C540.58,671.84 543.36,671.39 542.44,669.90 ZM 448.37 656.47 C448.70,655.62 452.05,649.66 455.82,643.22 C459.60,636.77 468.44,621.49 475.47,609.25 C482.50,597.01 488.76,587.00 489.38,587.00 C491.24,587.00 504.16,589.83 504.69,590.35 C505.75,591.42 501.13,592.87 497.92,592.47 C494.00,591.99 489.52,593.87 489.45,596.03 C489.38,598.53 487.10,601.83 485.00,602.50 C483.90,602.85 483.00,603.61 483.00,604.19 C483.00,604.85 483.57,604.77 484.50,604.00 C485.45,603.21 486.00,603.15 486.00,603.82 C486.00,604.40 485.54,605.16 484.98,605.51 C484.42,605.86 484.19,606.51 484.47,606.96 C484.75,607.41 484.20,607.71 483.24,607.64 C482.10,607.55 481.60,608.10 481.79,609.25 C481.96,610.21 481.59,611.00 480.98,611.00 C480.35,611.00 480.12,611.81 480.45,612.83 C481.19,615.17 478.25,617.80 475.20,617.53 C472.23,617.27 470.74,619.93 472.50,622.33 C474.85,625.55 471.64,633.00 467.90,633.00 C466.72,633.00 465.85,633.92 465.52,635.50 C465.23,636.88 464.77,639.12 464.48,640.50 C464.17,642.01 464.41,643.00 465.10,643.00 C465.94,643.00 465.93,643.39 465.06,644.43 C462.54,647.46 467.80,648.16 482.72,646.79 C487.04,646.39 489.45,645.07 487.28,644.29 C486.43,643.98 486.63,643.24 487.95,641.82 C489.68,639.96 493.17,639.24 501.36,639.04 C502.87,639.01 503.15,638.38 502.83,635.66 C502.42,632.20 503.81,630.00 506.40,630.00 C507.21,630.00 508.17,630.47 508.53,631.05 C509.24,632.19 513.85,631.74 516.48,630.27 C517.40,629.76 518.69,628.25 519.35,626.92 C520.01,625.59 521.52,624.36 522.70,624.19 C525.34,623.81 527.06,621.86 527.28,619.00 C527.49,616.16 529.87,614.99 536.20,614.63 C539.05,614.47 541.53,613.92 541.71,613.42 C543.11,609.42 544.89,607.45 547.53,607.00 C549.75,606.61 550.53,605.91 550.61,604.22 C550.79,600.67 553.77,597.96 556.39,598.96 C558.32,599.69 558.58,599.47 558.52,597.15 C558.44,594.39 561.01,592.10 564.25,592.04 C565.53,592.01 566.03,591.12 566.12,588.75 C566.18,586.96 566.17,585.12 566.08,584.64 C566.00,584.17 566.45,583.16 567.09,582.39 C567.97,581.33 567.95,581.00 567.02,581.00 C566.33,581.00 566.04,580.33 566.36,579.50 C566.90,578.10 566.53,577.90 562.75,577.60 C562.06,577.54 561.45,578.47 561.39,579.66 C561.16,584.31 560.31,585.04 555.78,584.52 C553.43,584.25 550.85,584.44 550.05,584.94 C549.17,585.50 547.93,585.50 546.87,584.93 C545.39,584.14 545.20,584.38 545.59,586.52 C546.56,591.86 545.15,592.58 532.82,593.00 C512.97,593.66 509.03,593.46 507.22,591.65 C505.69,590.12 506.13,590.00 513.54,589.99 C528.39,589.96 546.46,584.08 557.50,575.69 C571.69,564.91 581.74,550.41 587.09,533.00 C590.13,523.12 590.45,502.98 587.73,493.00 C584.94,482.77 578.86,471.12 571.65,462.18 L 565.00 453.95 L 574.66 437.23 C579.97,428.03 587.11,415.77 590.51,410.00 C593.92,404.23 598.66,396.01 601.06,391.74 C603.45,387.47 605.88,384.11 606.46,384.29 C607.99,384.75 612.47,394.36 615.41,403.50 C620.74,420.08 621.48,425.82 621.48,450.50 C621.49,470.41 621.18,475.08 619.19,485.31 C614.88,507.42 607.44,529.03 597.35,548.71 C570.84,600.42 522.67,642.34 475.94,654.38 C462.50,657.84 458.67,658.30 459.41,656.37 C459.74,655.53 460.00,654.65 460.00,654.42 C460.00,654.19 461.35,654.00 463.01,654.00 C465.73,654.00 465.90,653.82 464.81,652.06 C464.14,651.00 463.16,650.40 462.63,650.73 C462.06,651.08 461.94,650.60 462.34,649.55 C462.84,648.25 462.63,647.93 461.54,648.34 C460.73,648.66 459.80,648.48 459.47,647.95 C458.51,646.40 456.00,649.60 456.00,652.37 C456.00,653.75 456.45,655.16 457.00,655.50 C459.36,656.96 457.64,658.00 452.89,658.00 C448.72,658.00 447.89,657.72 448.37,656.47 ZM 575.00 572.57 C575.00,571.92 574.43,570.61 573.74,569.66 C572.63,568.14 572.24,568.11 570.54,569.34 C568.68,570.70 568.68,570.86 570.37,573.45 C571.79,575.62 572.41,575.90 573.57,574.94 C574.36,574.29 575.00,573.22 575.00,572.57 ZM 582.62 564.61 C583.51,561.82 580.47,559.69 577.89,561.30 C575.74,562.64 575.49,564.09 577.13,565.73 C578.84,567.44 581.92,566.82 582.62,564.61 ZM 589.83 547.87 C589.61,546.29 588.84,545.50 587.52,545.50 C584.91,545.50 584.28,550.68 586.81,551.27 C589.18,551.81 590.23,550.63 589.83,547.87 ZM 595.51 537.02 C595.23,536.56 595.90,536.42 597.00,536.71 C598.82,537.19 599.00,536.74 599.00,531.67 C599.00,525.50 601.73,519.56 604.97,518.72 C606.43,518.34 606.87,517.32 606.85,514.36 C606.80,506.33 608.47,501.40 612.79,496.78 C614.80,494.62 615.29,493.13 615.16,489.60 C615.07,487.16 615.42,484.01 615.96,482.61 C616.58,480.99 616.58,479.86 615.96,479.48 C614.69,478.69 614.73,474.29 616.02,473.49 C616.58,473.14 616.79,472.47 616.50,472.00 C616.21,471.53 616.43,470.85 616.99,470.51 C617.55,470.16 617.73,468.77 617.39,467.43 C617.05,466.08 617.31,464.33 617.96,463.55 C618.82,462.52 618.85,461.58 618.07,460.13 C616.72,457.61 616.68,453.31 618.00,452.50 C618.55,452.16 619.00,451.21 619.00,450.38 C619.00,449.56 618.66,449.10 618.23,449.36 C617.81,449.62 616.95,448.74 616.33,447.41 C615.69,446.06 615.60,445.00 616.13,445.00 C617.89,445.00 618.19,442.05 616.59,440.45 C615.70,439.56 615.24,438.43 615.55,437.92 C615.86,437.41 615.69,437.00 615.16,437.00 C614.60,437.00 614.43,435.00 614.76,432.25 C615.72,424.06 615.28,412.04 613.95,410.45 C613.27,409.62 612.51,409.16 612.25,409.42 C611.56,410.11 609.14,407.62 609.66,406.75 C609.91,406.34 609.59,406.00 608.94,406.00 C608.25,406.00 607.99,405.16 608.30,403.95 C608.70,402.42 608.22,401.65 606.43,400.97 C603.06,399.69 601.32,400.63 600.63,404.12 C600.00,407.27 597.65,410.32 596.64,409.31 C595.13,407.79 593.11,411.48 593.08,415.82 C593.02,423.41 592.60,424.47 589.51,424.83 C586.27,425.21 583.43,427.53 585.01,428.51 C585.57,428.85 585.83,429.46 585.59,429.86 C585.34,430.26 584.92,432.52 584.64,434.88 C584.01,440.43 584.17,440.29 577.63,440.92 C577.16,440.96 576.98,442.13 577.25,443.51 C577.72,445.98 575.14,450.24 573.35,449.92 C572.88,449.83 571.91,449.82 571.18,449.88 C569.32,450.05 570.09,455.47 572.00,455.60 C575.08,455.79 576.79,457.21 577.35,460.01 C577.82,462.34 578.36,462.82 580.16,462.47 C584.29,461.67 585.87,464.41 585.40,471.54 C584.99,477.76 585.06,477.98 587.86,479.43 C589.45,480.25 591.03,480.64 591.37,480.29 C592.11,479.55 592.19,480.43 592.47,493.50 C592.59,499.00 592.33,504.22 591.89,505.10 C591.43,506.02 591.56,507.16 592.20,507.80 C593.02,508.62 592.96,509.35 591.97,510.53 C590.96,511.76 590.92,512.33 591.81,512.88 C592.60,513.37 592.83,515.57 592.48,519.56 C592.20,522.83 591.91,527.11 591.83,529.08 C591.67,532.99 593.93,539.16 595.23,538.36 C595.67,538.09 595.80,537.48 595.51,537.02 ZM 416.21 637.82 C413.77,633.87 408.43,620.63 407.59,616.46 C407.26,614.83 406.03,609.45 404.87,604.50 C403.15,597.15 402.74,592.03 402.64,576.50 C402.47,550.06 405.44,531.70 413.87,507.00 C418.61,493.12 419.78,490.32 426.18,477.59 C449.54,431.15 488.85,393.26 532.05,375.53 C541.42,371.69 559.23,367.28 568.75,366.46 C573.29,366.06 577.00,365.98 577.00,366.28 C577.00,366.95 537.10,436.25 536.18,437.18 C535.80,437.56 532.80,437.20 529.50,436.37 C520.47,434.12 502.42,434.45 492.50,437.05 C469.46,443.08 449.31,460.80 440.41,482.84 C436.67,492.09 435.00,499.90 434.74,509.31 C434.61,514.08 434.22,517.99 433.87,518.00 C433.53,518.00 432.66,516.59 431.95,514.88 C430.98,512.53 430.92,511.04 431.74,508.88 C432.36,507.23 432.44,505.77 431.92,505.45 C431.43,505.15 431.27,503.35 431.58,501.45 C431.89,499.47 431.70,498.00 431.13,498.00 C430.54,498.00 430.44,496.90 430.88,495.25 C431.84,491.69 431.28,489.32 429.32,488.57 C427.09,487.71 425.00,489.79 424.98,492.87 C424.95,498.26 422.41,504.43 419.99,505.00 C417.33,505.63 415.86,508.75 417.11,511.15 C417.61,512.12 417.52,514.09 416.88,515.92 C416.28,517.63 416.07,520.13 416.40,521.47 C416.84,523.23 416.40,524.48 414.82,525.95 C413.61,527.08 412.25,528.00 411.79,528.00 C410.28,528.00 408.78,533.37 408.43,540.00 C408.25,543.58 408.05,546.95 407.99,547.50 C407.94,548.05 408.08,549.75 408.31,551.27 C408.54,552.80 408.33,554.30 407.84,554.60 C407.33,554.91 407.25,561.86 407.66,570.83 C408.32,585.47 408.44,598.19 407.93,600.50 C407.62,601.90 409.04,613.26 409.65,614.24 C409.93,614.69 410.68,614.95 411.33,614.82 C411.97,614.69 413.66,614.89 415.07,615.27 C417.25,615.85 417.60,616.45 417.38,619.26 C417.05,623.38 418.17,625.31 420.62,624.83 C421.99,624.57 422.50,623.61 422.50,621.29 C422.50,617.95 423.51,616.36 425.96,615.82 C429.18,615.11 430.84,612.49 430.90,608.00 C431.01,600.38 431.39,599.53 434.76,599.19 C438.28,598.84 440.00,595.46 440.00,588.89 C440.00,584.70 441.75,583.00 446.07,583.00 C446.66,583.00 447.01,581.98 446.85,580.74 C446.54,578.37 449.12,573.80 450.62,574.08 C453.39,574.58 454.72,573.81 454.61,571.76 C454.54,570.34 453.77,569.42 452.50,569.22 C446.33,568.29 446.02,568.08 446.98,565.57 C448.11,562.57 446.58,561.08 442.79,561.51 C439.43,561.89 438.58,559.83 438.75,551.71 C438.88,546.07 438.79,545.87 435.54,544.32 C432.40,542.82 432.17,542.37 431.70,536.61 C431.27,531.28 431.32,525.40 431.84,521.25 C431.93,520.56 432.62,520.00 433.39,520.00 C434.28,520.00 435.02,521.70 435.47,524.75 C437.39,537.91 444.75,553.01 454.45,563.70 L 460.08 569.91 L 457.70 573.70 C456.39,575.79 447.32,591.45 437.54,608.50 C427.76,625.55 419.43,639.87 419.01,640.32 C418.59,640.78 417.33,639.65 416.21,637.82 ZM 438.65 475.53 C438.54,473.62 437.95,473.00 436.25,473.00 C433.82,473.00 433.84,472.96 433.45,477.73 L 433.18 480.96 L 435.98 479.51 C438.03,478.45 438.75,477.37 438.65,475.53 ZM 447.24 462.11 C447.65,462.05 447.89,460.94 447.78,459.65 C447.64,457.92 447.04,457.35 445.54,457.52 C444.42,457.64 442.99,457.80 442.37,457.87 C441.17,458.01 439.87,461.54 440.71,462.37 C441.12,462.78 443.52,462.69 447.24,462.11 ZM 453.50 451.90 C453.50,448.94 449.39,447.77 449.25,450.70 C449.11,453.75 449.80,454.85 451.69,454.58 C452.86,454.40 453.50,453.46 453.50,451.90 ZM 463.14 446.13 C463.49,446.06 463.76,445.44 463.73,444.75 C463.52,439.19 463.53,439.19 471.48,439.38 C476.76,439.50 479.10,439.18 479.45,438.28 C479.72,437.57 479.54,437.00 479.06,437.00 C478.13,437.00 478.25,435.53 479.37,432.98 C479.85,431.87 481.15,431.56 484.02,431.83 C486.61,432.08 488.00,431.80 488.00,431.04 C488.00,430.29 488.78,430.11 490.15,430.55 C491.33,430.92 501.55,431.27 512.87,431.32 L 533.45 431.41 L 534.83 427.45 C535.59,425.28 536.65,422.32 537.18,420.88 C537.70,419.44 539.16,417.79 540.41,417.22 C542.14,416.44 542.65,415.44 542.51,413.11 C542.38,411.03 543.07,409.34 544.66,407.85 C545.95,406.64 547.00,405.97 547.00,406.36 C547.00,406.75 547.88,406.60 548.96,406.02 C550.49,405.20 550.91,403.97 550.84,400.50 C550.73,395.34 553.10,391.00 556.02,391.00 C557.11,391.00 558.06,390.66 558.13,390.25 C558.33,389.09 558.81,385.89 559.45,381.50 C560.04,377.45 562.46,374.55 564.30,375.68 C565.72,376.56 567.88,373.27 567.31,371.10 C566.93,369.64 566.22,369.41 563.67,369.93 C561.15,370.45 560.40,371.18 559.99,373.54 L 559.48 376.50 L 548.49 376.58 C539.71,376.65 537.50,376.95 537.50,378.08 C537.50,380.42 533.51,384.11 530.41,384.63 C526.43,385.30 522.74,385.82 521.30,385.92 C520.55,385.97 520.24,387.15 520.48,389.06 C520.95,392.76 520.12,393.16 511.75,393.36 C505.88,393.49 505.48,393.65 505.17,396.00 C504.75,399.09 503.99,399.92 501.06,400.49 C498.61,400.96 496.50,403.13 494.99,406.75 C494.27,408.48 493.18,409.03 490.27,409.12 C488.20,409.18 486.05,409.34 485.50,409.46 C484.95,409.59 483.99,409.76 483.37,409.85 C482.75,409.93 481.68,411.36 480.99,413.03 C480.30,414.70 479.51,415.84 479.24,415.57 C478.42,414.76 473.00,417.96 472.97,419.28 C472.92,421.18 469.24,425.14 467.27,425.43 C466.26,425.57 465.35,426.72 465.15,428.09 C464.67,431.45 463.16,433.00 460.38,433.00 C458.49,433.00 457.97,433.56 457.85,435.75 C457.65,439.37 457.52,440.08 456.63,442.74 C456.21,443.97 456.10,445.34 456.37,445.79 C456.78,446.46 460.57,446.65 463.14,446.13 ZM 363.68 580.25 C361.68,575.99 358.88,569.12 357.46,565.00 C354.63,556.78 350.84,540.83 351.55,540.12 C351.80,539.87 352.00,540.22 352.00,540.89 C352.00,541.57 352.45,541.84 353.00,541.50 C353.55,541.16 354.00,541.35 354.00,541.93 C354.00,542.51 355.39,544.31 357.09,545.93 C359.99,548.71 360.19,549.36 360.35,556.77 C360.53,565.13 361.07,566.24 366.25,568.92 C368.94,570.30 369.00,570.55 369.00,579.17 C369.00,584.03 368.62,588.00 368.16,588.00 C367.69,588.00 365.68,584.51 363.68,580.25 ZM 366.67 562.33 C365.42,561.09 365.99,557.22 367.50,556.64 C368.66,556.19 369.00,556.86 369.00,559.53 C369.00,562.81 368.16,563.82 366.67,562.33 ZM 499.43 554.13 C477.54,546.66 464.51,524.49 469.37,502.99 C475.23,477.01 501.78,462.55 527.90,471.13 C536.53,473.96 544.69,480.91 549.93,489.88 C554.90,498.39 556.40,505.06 555.75,515.60 C554.31,538.68 535.20,556.16 511.66,555.93 C507.68,555.89 502.25,555.09 499.43,554.13 ZM 521.66 550.87 C522.42,550.23 523.32,549.99 523.66,550.32 C524.67,551.34 528.19,548.94 527.67,547.58 C526.95,545.71 528.34,544.01 531.00,543.50 C534.10,542.90 534.80,542.09 535.27,538.50 C535.59,536.00 536.16,535.45 538.68,535.20 C541.14,534.95 542.07,534.11 543.63,530.70 C544.70,528.39 546.16,526.63 546.89,526.79 C548.67,527.17 550.84,525.25 550.96,523.18 C551.17,519.58 551.82,513.45 552.09,512.50 C552.55,510.88 550.92,499.49 550.02,498.04 C549.57,497.30 547.92,496.62 546.35,496.53 C543.70,496.37 543.51,496.08 543.64,492.43 C543.79,488.30 542.57,486.71 539.89,487.55 C538.19,488.07 535.26,485.40 536.35,484.32 C537.37,483.30 534.93,481.00 532.83,481.00 C530.71,481.00 525.74,476.22 526.53,474.95 C527.28,473.74 523.66,472.88 518.28,472.96 C497.21,473.30 495.82,473.61 496.45,477.88 C496.75,479.88 494.21,481.93 491.38,481.97 C489.82,481.99 489.09,482.81 488.65,485.00 C488.26,486.97 487.44,488.01 486.27,488.02 C483.66,488.04 481.70,489.56 481.54,491.70 C481.32,494.70 478.72,497.49 476.00,497.63 C474.62,497.70 473.20,497.82 472.84,497.88 C472.30,497.98 472.48,508.56 473.08,512.50 C473.17,513.05 472.91,514.29 472.51,515.25 C472.10,516.24 472.22,517.00 472.80,517.00 C473.36,517.00 473.62,517.79 473.39,518.75 C472.74,521.45 474.48,526.49 476.07,526.52 C480.70,526.60 482.77,529.33 480.71,532.66 C480.03,533.77 482.64,535.51 484.38,535.12 C486.00,534.74 489.00,538.29 489.00,540.59 C489.00,542.42 489.63,542.94 492.16,543.19 C494.63,543.43 495.73,544.29 497.19,547.12 C498.99,550.60 499.28,550.74 504.70,550.87 C507.80,550.94 510.48,551.15 510.67,551.34 C511.59,552.26 520.44,551.88 521.66,550.87 ZM 367.00 549.61 C367.00,548.29 367.67,546.95 368.50,546.64 C369.63,546.21 370.00,546.80 370.00,549.03 C370.00,551.00 369.50,552.00 368.50,552.00 C367.58,552.00 367.00,551.07 367.00,549.61 ZM 367.92 543.25 C367.50,539.02 367.41,525.22 367.78,520.39 C368.19,515.08 368.59,514.09 370.87,512.82 C374.53,510.77 377.38,511.54 376.54,514.34 C376.18,515.53 374.69,522.69 373.22,530.25 C371.46,539.31 370.11,544.00 369.27,544.00 C368.57,544.00 367.97,543.66 367.92,543.25 ZM 350.68 537.35 C349.43,532.86 348.90,524.00 349.89,524.00 C351.58,524.00 352.87,527.34 353.13,532.34 C353.39,537.24 351.65,540.80 350.68,537.35 ZM 349.14 515.25 C349.17,512.09 349.48,509.05 349.81,508.51 C350.81,506.88 351.76,512.35 350.81,514.25 C350.25,515.36 350.31,516.00 350.96,516.00 C351.53,516.00 352.00,517.12 352.00,518.50 C352.00,520.03 351.43,521.00 350.54,521.00 C349.42,521.00 349.09,519.66 349.14,515.25 ZM 376.91 508.75 C376.86,508.61 376.60,506.94 376.33,505.03 C376.06,503.13 375.46,500.85 374.99,499.98 C374.52,499.10 374.53,497.77 375.00,496.99 C375.48,496.22 375.67,494.45 375.42,493.05 C374.90,490.04 377.29,486.51 379.33,487.30 C381.68,488.20 383.32,483.11 383.54,474.26 C383.75,465.64 384.83,463.00 388.15,463.00 C390.26,463.00 390.65,462.26 391.45,456.75 C391.74,454.69 391.58,453.00 391.08,453.00 C390.58,453.00 390.50,451.77 390.91,450.25 C391.51,447.98 392.22,447.49 394.90,447.44 C398.55,447.37 399.96,445.79 399.98,441.75 C400.00,439.17 400.81,438.55 403.70,438.91 C405.41,439.13 406.77,436.08 406.79,432.00 C406.82,425.93 406.97,425.18 408.44,423.70 C409.23,422.91 411.08,422.39 412.54,422.55 C414.97,422.82 415.17,422.58 414.77,419.90 C414.52,418.19 414.90,416.50 415.67,415.86 C416.40,415.25 417.00,415.05 417.00,415.40 C417.00,415.76 418.05,415.36 419.33,414.52 C420.61,413.68 422.03,413.33 422.49,413.75 C422.95,414.16 423.02,413.98 422.65,413.33 C421.87,411.96 423.60,406.87 424.73,407.23 C425.15,407.37 426.90,406.89 428.61,406.18 C431.08,405.14 431.65,404.36 431.43,402.32 C431.28,400.91 431.63,398.72 432.21,397.44 C433.33,394.97 436.00,393.34 436.00,395.11 C436.00,395.69 436.56,395.98 437.25,395.75 C437.94,395.52 438.50,394.71 438.50,393.96 C438.50,393.20 440.08,391.53 442.00,390.24 C443.92,388.95 445.88,387.07 446.35,386.06 C447.49,383.61 451.70,381.66 452.31,383.30 C452.56,383.96 453.27,383.22 453.89,381.67 C454.51,380.11 454.78,378.45 454.49,377.99 C453.64,376.61 456.06,375.37 460.06,375.12 C461.19,375.06 461.91,374.66 461.66,374.25 C461.41,373.84 461.95,371.92 462.86,370.00 C464.08,367.42 465.30,366.37 467.51,366.00 C470.71,365.47 471.74,363.60 470.00,361.50 C469.29,360.65 467.32,360.36 464.21,360.65 C457.85,361.24 457.00,361.62 457.00,363.85 C457.00,366.68 455.12,367.73 448.96,368.35 C441.72,369.07 440.45,369.63 440.26,372.18 C440.17,373.34 439.74,374.65 439.30,375.09 C438.30,376.08 433.60,377.10 429.00,377.33 C426.17,377.47 425.48,377.91 425.39,379.66 C425.17,384.06 424.14,385.25 420.94,384.78 C417.72,384.31 417.13,384.75 416.48,388.10 C415.81,391.56 413.96,393.00 410.13,393.03 C406.68,393.06 403.00,394.84 403.00,396.48 C403.00,396.90 403.67,396.68 404.50,396.00 C405.45,395.21 406.00,395.15 406.00,395.82 C406.00,396.40 405.54,397.16 404.98,397.51 C404.42,397.86 404.22,398.55 404.54,399.06 C404.85,399.56 404.41,399.71 403.55,399.38 C402.70,399.05 402.00,399.29 402.00,399.91 C402.00,402.33 396.91,409.00 395.07,409.00 C393.77,409.00 392.95,409.94 392.52,411.92 C391.92,414.64 390.45,415.91 387.10,416.58 C385.44,416.92 383.90,419.10 384.35,420.49 C384.73,421.70 382.13,424.46 381.35,423.68 C381.04,423.37 379.96,423.89 378.96,424.82 C377.60,426.09 377.20,427.73 377.38,431.26 C377.52,433.87 377.27,436.00 376.82,436.00 C376.37,436.00 376.00,436.70 376.00,437.55 C376.00,438.40 374.48,439.74 372.62,440.52 C368.87,442.08 367.58,445.04 367.94,451.25 C368.06,453.34 367.68,455.06 367.08,455.12 C366.48,455.19 365.55,455.36 365.00,455.50 C364.45,455.64 363.62,455.81 363.16,455.88 C361.44,456.13 360.33,460.67 360.71,465.91 C361.24,473.04 358.40,480.00 354.96,480.00 C354.32,480.00 354.04,480.67 354.36,481.49 C354.67,482.31 354.36,483.52 353.66,484.17 C352.97,484.82 352.58,486.62 352.81,488.18 C353.04,489.73 352.81,491.00 352.30,491.00 C351.79,491.00 351.56,493.62 351.80,496.85 C352.14,501.57 351.91,502.82 350.61,503.32 C348.39,504.17 348.49,500.26 351.06,485.13 C360.72,428.24 398.68,381.49 452.50,360.20 C467.88,354.12 493.62,348.51 503.07,349.18 L 507.50 349.50 L 501.50 352.65 C482.67,362.52 464.01,376.83 444.42,396.42 C421.79,419.04 409.77,435.71 395.66,464.00 C391.06,473.22 385.30,486.79 382.61,494.75 C378.40,507.19 377.31,509.85 376.91,508.75 ZM 486.00 356.93 C486.00,355.79 485.32,354.18 484.50,353.35 C482.89,351.75 483.06,351.56 481.56,356.44 C481.12,357.85 482.30,358.77 484.75,358.92 C485.44,358.96 486.00,358.07 486.00,356.93 ZM 673.40 505.23 C671.85,504.19 670.85,495.55 672.13,494.27 C672.87,493.53 672.71,492.48 671.59,490.78 C670.71,489.44 670.28,488.05 670.63,487.70 C671.51,486.82 671.97,482.03 671.16,482.19 C670.80,482.27 669.23,481.97 667.68,481.54 C664.08,480.53 662.99,477.60 663.47,470.30 C663.68,467.11 663.54,462.70 663.16,460.50 C662.53,456.90 662.16,456.50 659.48,456.47 C656.11,456.43 656.25,456.96 655.79,442.75 C655.63,437.94 655.80,434.00 656.16,434.00 C657.10,434.00 665.38,454.10 668.34,463.59 C672.60,477.25 677.35,506.02 675.33,505.98 C674.87,505.98 674.01,505.64 673.40,505.23 ZM 655.00 464.65 C655.00,461.31 656.01,458.89 657.10,459.56 C658.51,460.43 658.15,463.99 656.50,465.64 C655.17,466.98 655.00,466.87 655.00,464.65 Z" fill="rgb(253,253,253)"/>
</g>
</svg>