<svg xmlns="http://www.w3.org/2000/svg" viewBox="299.3 299.2 426.0 426.0">
<g>
<path d="M 537.77 708.03 C527.89,709.43 506.83,709.93 496.50,709.01 C413.58,701.62 342.84,642.68 321.89,563.50 C317.54,547.09 315.96,536.25 315.31,518.50 C314.12,485.84 320.33,456.76 334.98,426.50 C342.78,410.37 349.06,400.58 360.59,386.50 C406.89,329.98 479.72,304.40 552.50,319.09 C572.32,323.09 598.12,333.28 615.50,343.97 C634.92,355.92 655.95,374.76 668.86,391.78 C718.91,457.77 723.00,546.33 679.24,616.72 C648.15,666.75 597.26,699.59 537.77,708.03 ZM 416.21 637.82 C417.33,639.65 418.59,640.78 419.01,640.32 C419.43,639.87 427.76,625.55 437.54,608.50 C447.32,591.45 456.39,575.79 457.70,573.70 L 460.08 569.91 L 454.45 563.70 C425.09,531.35 428.85,480.59 462.71,452.24 C469.87,446.25 483.10,439.50 492.50,437.04 C502.42,434.45 520.48,434.12 529.50,436.37 C532.80,437.20 535.80,437.56 536.18,437.18 C537.10,436.25 577.00,366.95 577.00,366.28 C577.00,365.98 573.29,366.06 568.75,366.46 C559.23,367.28 541.42,371.69 532.05,375.53 C488.85,393.26 449.54,431.15 426.18,477.59 C419.78,490.32 418.61,493.12 413.87,507.00 C405.44,531.70 402.47,550.06 402.64,576.50 C402.74,592.03 403.15,597.15 404.87,604.50 C406.03,609.45 407.26,614.83 407.59,616.46 C408.43,620.63 413.77,633.87 416.21,637.82 ZM 448.31 656.63 C447.72,658.18 448.49,658.27 457.08,657.68 C494.89,655.10 540.52,627.16 572.43,587.06 C596.14,557.26 611.83,523.12 619.19,485.31 C621.18,475.08 621.49,470.41 621.48,450.50 C621.48,425.82 620.74,420.08 615.41,403.50 C612.47,394.36 607.99,384.75 606.46,384.29 C605.88,384.11 603.45,387.47 601.06,391.74 C598.66,396.01 593.92,404.23 590.51,410.00 C587.11,415.77 579.97,428.03 574.66,437.23 L 565.00 453.95 L 571.65 462.18 C578.86,471.12 584.94,482.77 587.73,493.00 C590.45,502.98 590.13,523.12 587.09,533.00 C580.72,553.74 565.97,572.42 549.30,580.86 C532.75,589.25 514.08,591.99 497.50,588.48 C493.65,587.67 490.00,587.00 489.38,587.00 C488.76,587.00 482.50,597.01 475.47,609.25 C468.44,621.49 459.60,636.77 455.82,643.22 C452.05,649.66 448.67,655.70 448.31,656.63 ZM 518.00 675.34 C518.00,675.80 519.69,675.92 521.75,675.62 C523.81,675.31 528.20,674.78 531.50,674.43 C546.00,672.91 566.90,667.10 581.43,660.54 C598.23,652.96 615.22,640.72 629.58,625.85 C652.58,602.02 665.97,576.48 673.14,542.77 C674.93,534.35 675.33,529.09 675.37,513.50 C675.43,492.90 673.74,480.88 668.36,463.64 C665.38,454.09 657.11,434.00 656.16,434.00 C655.80,434.01 655.45,441.99 655.39,451.75 C655.25,472.80 653.36,487.35 647.99,508.57 C636.91,552.31 615.88,590.87 585.57,623.04 C566.88,642.87 543.51,661.17 523.58,671.59 C520.52,673.19 518.00,674.88 518.00,675.34 ZM 363.27 579.25 C365.48,584.06 367.61,588.00 368.01,588.00 C368.40,588.00 368.97,579.11 369.27,568.25 C370.29,530.87 378.54,498.32 395.65,464.00 C409.77,435.70 421.80,419.04 444.42,396.42 C464.01,376.83 482.67,362.52 501.50,352.65 L 507.50 349.50 L 503.07 349.18 C493.62,348.51 467.88,354.12 452.50,360.20 C398.42,381.59 360.70,428.23 350.94,485.78 C349.10,496.64 348.86,501.13 349.27,516.50 C349.94,541.47 353.75,558.54 363.27,579.25 ZM 499.43 554.13 C502.25,555.09 507.68,555.89 511.66,555.93 C535.20,556.16 554.31,538.68 555.75,515.60 C556.40,505.06 554.90,498.39 549.93,489.88 C544.69,480.91 536.53,473.96 527.90,471.13 C501.78,462.55 475.23,477.01 469.37,502.99 C464.51,524.49 477.54,546.66 499.43,554.13 Z" fill="rgb(1,1,1)"/>


</g>
</svg>